<?xml version="1.0" encoding="UTF-8"?>
<svg version="1.1" xmlns="http://www.w3.org/2000/svg" width="500" height="123">
<path d="M0 0 C6.27 -0.061875 12.54 -0.12375 19 -0.1875 C21.94486328 -0.22846802 21.94486328 -0.22846802 24.94921875 -0.27026367 C26.5286396 -0.27903648 28.10806731 -0.28667853 29.6875 -0.29296875 C30.88922852 -0.3159906 30.88922852 -0.3159906 32.11523438 -0.33947754 C40.59411181 -0.34336456 47.08434186 2.20023888 53.30078125 8.0625 C58.13204259 13.57124857 58.55483657 19.83964228 58.34765625 26.96484375 C57.64057244 33.13792372 55.8339747 38.81512564 51 42.9375 C50.01 43.618125 49.02 44.29875 48 45 C46.66323715 45.99541091 45.3291969 46.99450838 44 48 C44.44915771 48.74161377 44.89831543 49.48322754 45.36108398 50.24731445 C47.02768011 53.00223822 48.69161273 55.75874745 50.35375977 58.51635742 C51.07339988 59.70905675 51.79409512 60.90112011 52.51586914 62.0925293 C53.55372503 63.80609865 54.5874641 65.5221593 55.62109375 67.23828125 C56.2442749 68.26993408 56.86745605 69.30158691 57.50952148 70.36450195 C59 73 59 73 60 76 C49.21724401 77.53104666 49.21724401 77.53104666 44 76 C40.57918946 72.7437999 38.77331136 69.13214144 36.85888672 64.84423828 C35.45340649 61.82633105 33.71649366 59.03925878 32 56.1875 C30.99838558 54.45926798 29.99774708 52.7304676 29 51 C28.01 51.495 28.01 51.495 27 52 C23.7 51.67 20.4 51.34 17 51 C17 59.25 17 67.5 17 76 C11.39 76 5.78 76 0 76 C0 50.92 0 25.84 0 0 Z M15 13 C15 20.59 15 28.18 15 36 C17.825625 36.04125 20.65125 36.0825 23.5625 36.125 C24.43849854 36.14320801 25.31449707 36.16141602 26.21704102 36.18017578 C34.71070396 36.24378427 34.71070396 36.24378427 41.91015625 32.21484375 C43.98295655 28.00237863 43.62239191 23.56646237 43 19 C40.90219061 15.38308725 39.95125774 14.31708591 36 13 C34.37280518 12.91856145 32.74248281 12.8924698 31.11328125 12.90234375 C29.845448 12.90609009 29.845448 12.90609009 28.55200195 12.90991211 C27.48296631 12.91901611 26.41393066 12.92812012 25.3125 12.9375 C21.909375 12.958125 18.50625 12.97875 15 13 Z M17 48 C17 48.66 17 49.32 17 50 C20.63 50 24.26 50 28 50 C28 49.34 28 48.68 28 48 C24.37 48 20.74 48 17 48 Z " fill="#F15142" transform="translate(18,28)"/>
<path d="M0 0 C4.95 0 9.9 0 15 0 C15 28.71 15 57.42 15 87 C10.38 87 5.76 87 1 87 C0.67 85.68 0.34 84.36 0 83 C-0.928125 83.639375 -1.85625 84.27875 -2.8125 84.9375 C-8.80592908 88.81560117 -15.40832886 88.98007098 -22.32421875 87.50390625 C-26.94336885 85.94659279 -29.79172746 83.74298463 -33 80 C-33.70125 79.278125 -34.4025 78.55625 -35.125 77.8125 C-41.45487096 68.31769355 -41.22127127 55.90773149 -39.53125 44.96484375 C-37.69361465 37.88776001 -33.86930264 31.76610183 -27.8125 27.5625 C-23.4374541 25.13191895 -20.14224995 24.81331949 -15.1875 24.75 C-13.98480469 24.72421875 -12.78210938 24.6984375 -11.54296875 24.671875 C-7.53532162 25.04303526 -3.93020203 26.06979797 -1 29 C-0.67 19.43 -0.34 9.86 0 0 Z M-22 41 C-26.48755929 48.11819749 -26.97863667 56.07973509 -25.25 64.1875 C-24.24812542 67.82287346 -22.6475007 70.2697649 -20 73 C-16.03476986 74.98261507 -11.31072279 74.55250109 -7 74 C-4.26622627 72.63311313 -3.07711543 71.35042009 -1 69 C0.37473284 64.87580148 0.22391707 61.00748491 0.25 56.6875 C0.270625 55.84509766 0.29125 55.00269531 0.3125 54.13476562 C0.34458971 49.00442378 -0.08857013 45.41521087 -3 41 C-9.30657501 36.70006249 -15.69342499 36.70006249 -22 41 Z " fill="#F15142" transform="translate(189,17)"/>
<path d="M0 0 C4.95 0 9.9 0 15 0 C15 28.71 15 57.42 15 87 C10.38 87 5.76 87 1 87 C0.67 85.68 0.34 84.36 0 83 C-0.928125 83.639375 -1.85625 84.27875 -2.8125 84.9375 C-8.82912674 88.83061142 -15.30298941 88.88730356 -22.25390625 87.57421875 C-28.53063527 85.57205274 -33.10168243 81.41121915 -36.2890625 75.68359375 C-41.19019701 64.98219573 -42.10621076 51.34229209 -38.04296875 40.14453125 C-34.9908657 33.86885868 -31.08972729 29.38318183 -25 26 C-21.57008462 24.85669487 -18.8013584 24.79618349 -15.1875 24.75 C-13.98480469 24.72421875 -12.78210938 24.6984375 -11.54296875 24.671875 C-7.53532162 25.04303526 -3.93020203 26.06979797 -1 29 C-0.67 19.43 -0.34 9.86 0 0 Z M-22 41 C-26.48755929 48.11819749 -26.97863667 56.07973509 -25.25 64.1875 C-24.24812542 67.82287346 -22.6475007 70.2697649 -20 73 C-16.03476986 74.98261507 -11.31072279 74.55250109 -7 74 C-4.26622627 72.63311313 -3.07711543 71.35042009 -1 69 C0.37473284 64.87580148 0.22391707 61.00748491 0.25 56.6875 C0.270625 55.84509766 0.29125 55.00269531 0.3125 54.13476562 C0.34458971 49.00442378 -0.08857013 45.41521087 -3 41 C-9.30657501 36.70006249 -15.69342499 36.70006249 -22 41 Z " fill="#F15142" transform="translate(428,17)"/>
<path d="M0 0 C2.40579377 1.92463502 4.72629911 3.92137995 7 6 C4.14723863 8.93200474 1.34920216 11.64315404 -2 14 C-4 13 -6 12 -8 11 C-9.64142541 10.85359499 -11.2898141 10.77903411 -12.9375 10.75 C-13.81277344 10.72421875 -14.68804687 10.6984375 -15.58984375 10.671875 C-18.00565751 10.82602139 -18.00565751 10.82602139 -19.75390625 12.140625 C-21.50306212 14.47418831 -21.50306212 14.47418831 -22 20 C-14.74 20 -7.48 20 0 20 C0 20.33 0 20.66 0 21 C-7.59 21 -15.18 21 -23 21 C-23 21.66 -23 22.32 -23 23 C-15.41 23 -7.82 23 0 23 C0 27.95 0 32.9 0 38 C-7.26 38 -14.52 38 -22 38 C-21.34 38.33 -20.68 38.66 -20 39 C-20 48.9 -20 58.8 -20 69 C-14.39 69 -8.78 69 -3 69 C-3 73.95 -3 78.9 -3 84 C-17.19 84 -31.38 84 -46 84 C-46 79.71 -46 75.42 -46 71 C-43.03 71 -40.06 71 -37 71 C-37 59.45 -37 47.9 -37 36 C-39.97 36 -42.94 36 -46 36 C-46 31.71 -46 27.42 -46 23 C-43.03 23 -40.06 23 -37 23 C-37.061875 21.865625 -37.12375 20.73125 -37.1875 19.5625 C-37.13589029 13.72028093 -36.1214719 8.57465017 -32.3359375 3.98046875 C-23.40437107 -4.47071462 -10.72763664 -7.07048779 0 0 Z " fill="#F15041" transform="translate(263,20)"/>
<path d="M0 0 C5.22046034 3.78739279 8.35470904 8.10664044 10.1875 14.3125 C10.57846879 17.90110172 10.53803012 21.45236906 10.48046875 25.05859375 C10.47622391 26.06970718 10.47197906 27.08082062 10.46760559 28.12257385 C10.45089754 31.33199401 10.41325953 34.54077165 10.375 37.75 C10.35994301 39.93423568 10.34625638 42.11848127 10.33398438 44.30273438 C10.30101973 49.6395681 10.24929158 54.97592535 10.1875 60.3125 C5.8975 60.3125 1.6075 60.3125 -2.8125 60.3125 C-3.3075 58.3325 -3.3075 58.3325 -3.8125 56.3125 C-4.740625 56.951875 -5.66875 57.59125 -6.625 58.25 C-12.46909217 62.0314714 -18.02501478 61.91882622 -24.8125 61.3125 C-31.54550737 59.48525316 -35.33221337 56.50023032 -38.890625 50.4921875 C-41.07437572 45.3289125 -40.42079525 39.13738574 -38.6875 33.9375 C-34.98193491 28.74970887 -30.96157307 25.84459228 -24.8125 24.3125 C-21.18281941 24.08114898 -17.57257644 24.12346749 -13.9375 24.1875 C-12.96296875 24.19652344 -11.9884375 24.20554687 -10.984375 24.21484375 C-8.59349272 24.23828377 -6.20312739 24.27109558 -3.8125 24.3125 C-4.09506197 22.85497622 -4.38888357 21.39963195 -4.6875 19.9453125 C-4.84992188 19.13465332 -5.01234375 18.32399414 -5.1796875 17.48876953 C-5.68941235 15.12055023 -5.68941235 15.12055023 -7.8125 13.1875 C-12.29199635 11.88098023 -16.30360693 12.17766036 -20.8125 13.3125 C-23.8729837 15.55187831 -24.61588783 16.72266349 -25.8125 20.3125 C-30.6399799 18.89957905 -34.5287359 16.88275846 -38.8125 14.3125 C-36.75791781 7.96197324 -33.19824302 3.83044733 -27.5625 0.4375 C-19.63211144 -3.24191451 -7.99920654 -3.6619257 0 0 Z M-24.921875 38.1328125 C-26.19797775 41.25590607 -25.84783017 43.13748747 -24.8125 46.3125 C-21.97316553 48.81111433 -18.51722016 48.67500976 -14.83984375 48.55859375 C-11.59676206 48.16492487 -9.48152721 47.174612 -6.8125 45.3125 C-4.77833665 42.05783864 -3.8125 40.1580896 -3.8125 36.3125 C-6.91635211 36.19636796 -10.01964662 36.12527971 -13.125 36.0625 C-14.00607422 36.02898437 -14.88714844 35.99546875 -15.79492188 35.9609375 C-20.7855771 35.73653975 -20.7855771 35.73653975 -24.921875 38.1328125 Z " fill="#F15142" transform="translate(125.8125,43.6875)"/>
<path d="M0 0 C6.36192582 3.84095861 10.47945914 9.73501833 12.78125 16.75 C15.28654429 27.36065817 15.09113376 39.48381775 9.6328125 49.1875 C5.34076651 55.07953947 -0.45203319 59.63802978 -7.6875 61 C-15.91014195 61.8444305 -23.5687908 61.51904406 -30.6875 57 C-37.26165426 51.39065336 -40.93234021 45.17548771 -41.9855957 36.56225586 C-42.12350953 34.0537151 -42.15516382 31.57454258 -42.125 29.0625 C-42.11815186 28.18513184 -42.11130371 27.30776367 -42.10424805 26.40380859 C-41.90006445 18.17681559 -39.98428559 12.58028342 -35.5625 5.6875 C-26.06955364 -3.18634116 -12.00253284 -5.33849418 0 0 Z M-23.6875 14 C-28.36361805 20.1273271 -28.25847037 27.58776649 -27.6875 35 C-26.82624393 39.0824894 -25.31555945 42.21492569 -22.6875 45.5 C-18.15946386 47.76401807 -13.66111358 47.63745271 -8.6875 47 C-4.82509054 45.48069558 -3.51402197 43.74002117 -1.6875 40 C0.39935655 31.50865265 0.30292398 22.83833282 -3.6875 15 C-6.82627243 11.95931421 -9.63600185 11.07935835 -14 10.75 C-18.08032894 11.02663247 -20.28476253 11.75728666 -23.6875 14 Z " fill="#F15142" transform="translate(312.6875,44)"/>
<path d="M0 0 C1.90993553 1.19286009 3.66494667 2.41791419 5.3828125 3.87109375 C4.78997629 7.26301738 3.61538061 9.08186945 1.3203125 11.62109375 C0.77246094 12.2346875 0.22460938 12.84828125 -0.33984375 13.48046875 C-0.76136719 13.939375 -1.18289063 14.39828125 -1.6171875 14.87109375 C-2.46990234 14.64679687 -2.46990234 14.64679687 -3.33984375 14.41796875 C-8.23535375 13.24237458 -12.75646821 12.15847785 -17.5546875 13.99609375 C-21.04328997 17.16755054 -21.71344251 20.53476959 -21.93603516 25.1105957 C-21.97739161 26.77664449 -22.00858128 28.44296717 -22.03125 30.109375 C-22.05061615 30.99014206 -22.0699823 31.87090912 -22.0899353 32.77836609 C-22.14951601 35.58001141 -22.19603015 38.38169831 -22.2421875 41.18359375 C-22.28038709 43.08790813 -22.31943997 44.9922056 -22.359375 46.89648438 C-22.45519983 51.55454947 -22.5393101 56.21269543 -22.6171875 60.87109375 C-27.2371875 60.87109375 -31.8571875 60.87109375 -36.6171875 60.87109375 C-36.6171875 40.74109375 -36.6171875 20.61109375 -36.6171875 -0.12890625 C-32.3271875 -0.12890625 -28.0371875 -0.12890625 -23.6171875 -0.12890625 C-23.2871875 0.86109375 -22.9571875 1.85109375 -22.6171875 2.87109375 C-21.7303125 2.21109375 -20.8434375 1.55109375 -19.9296875 0.87109375 C-14.00408695 -2.48915534 -6.22420139 -2.68476746 0 0 Z " fill="#F25142" transform="translate(376.6171875,43.12890625)"/>
<path d="M0 0 C2.31027554 1.86312544 2.86428756 3.18572533 3.34765625 6.0859375 C3.62159676 10.31445516 3.35978332 12.4490818 1 16.0625 C-2.32154831 18.20766662 -4.17868019 18.7595293 -8.0625 18.47265625 C-11.66317126 17.59426669 -13.00772296 16.05067422 -15 13 C-15.69576165 9.8462607 -15.72478211 7.15023406 -15 4 C-10.35272409 -2.02889847 -6.99828334 -2.62435625 0 0 Z " fill="#FFFFFF" transform="translate(471,86)"/>
<path d="M0 0 C0.66 0 1.32 0 2 0 C2 20.13 2 40.26 2 61 C1.34 60.67 0.68 60.34 0 60 C0 40.2 0 20.4 0 0 Z " fill="#FB1F1F" transform="translate(337,43)"/>
<path d="M0 0 C6.6 0 13.2 0 20 0 C20 0.33 20 0.66 20 1 C13.73 1 7.46 1 1 1 C1.33 6.94 1.66 12.88 2 19 C5.10554454 18.91315256 8.20815428 18.80629446 11.3125 18.6875 C12.19357422 18.66494141 13.07464844 18.64238281 13.98242188 18.61914062 C14.82998047 18.58369141 15.67753906 18.54824219 16.55078125 18.51171875 C17.33106689 18.48553467 18.11135254 18.45935059 18.9152832 18.43237305 C21.49505623 17.89732468 22.40448292 17.06522537 24 15 C24.57571496 12.49796352 24.57571496 12.49796352 24.6875 9.8125 C24.75324219 8.91144531 24.81898437 8.01039062 24.88671875 7.08203125 C24.92410156 6.39496094 24.96148437 5.70789062 25 5 C25.33 5 25.66 5 26 5 C26.62264151 15.03144654 26.62264151 15.03144654 24.3125 18.625 C19.32467457 21.59073404 13.80959041 21.12328808 8.1875 21.0625 C5.485625 21.041875 2.78375 21.02125 0 21 C0 14.07 0 7.14 0 0 Z " fill="#F34640" transform="translate(34,42)"/>
<path d="M0 0 C0.33 0 0.66 0 1 0 C1 28.38 1 56.76 1 86 C0.67 86 0.34 86 0 86 C0 57.62 0 29.24 0 0 Z " fill="#FF3F3F" transform="translate(444,18)"/>
<path d="M0 0 C0.33 0 0.66 0 1 0 C1 28.38 1 56.76 1 86 C0.67 86 0.34 86 0 86 C0 57.62 0 29.24 0 0 Z " fill="#FD6432" transform="translate(205,18)"/>
<path d="M0 0 C0.33 0 0.66 0 1 0 C1 14.19 1 28.38 1 43 C0.34 42.67 -0.32 42.34 -1 42 C-1.02477057 36.82218777 -1.04289347 31.64441025 -1.05493164 26.46655273 C-1.0599517 24.70612995 -1.0667691 22.94571132 -1.07543945 21.18530273 C-1.08760703 18.65086846 -1.09325166 16.11648946 -1.09765625 13.58203125 C-1.10281754 12.79850784 -1.10797882 12.01498444 -1.11329651 11.2077179 C-1.11369066 7.34408861 -0.9444276 3.754835 0 0 Z " fill="#FE4105" transform="translate(356,61)"/>
<path d="M0 0 C4.51658714 -0.04993675 9.03302226 -0.08597002 13.54980469 -0.10986328 C15.08205978 -0.11983806 16.61429625 -0.13342276 18.14648438 -0.15087891 C26.60969838 -0.24479186 34.76198399 -0.25042199 43 2 C40.22852888 2.79066335 37.84292603 3.10579979 34.96582031 3.02172852 C34.18531311 3.00163223 33.40480591 2.98153595 32.60064697 2.96083069 C31.76821472 2.93379562 30.93578247 2.90676056 30.078125 2.87890625 C29.21813904 2.85529526 28.35815308 2.83168427 27.47210693 2.80735779 C24.73122845 2.73091789 21.99064661 2.64680911 19.25 2.5625 C17.38933733 2.50925961 15.52866027 2.45651935 13.66796875 2.40429688 C9.11179209 2.27532941 4.55586632 2.13948466 0 2 C0 1.34 0 0.68 0 0 Z " fill="#FB0B0A" transform="translate(19,25)"/>
<path d="M0 0 C0.33 0 0.66 0 1 0 C1 25.08 1 50.16 1 76 C0.67 76 0.34 76 0 76 C0 50.92 0 25.84 0 0 Z " fill="#FD6631" transform="translate(16,28)"/>
<path d="M0 0 C2.64 0 5.28 0 8 0 C8 10.89 8 21.78 8 33 C5.36 33 2.72 33 0 33 C0 32.67 0 32.34 0 32 C2.31 32 4.62 32 7 32 C7 21.77 7 11.54 7 1 C4.69 1 2.38 1 0 1 C0 0.67 0 0.34 0 0 Z " fill="#F8514D" transform="translate(217,57)"/>
<path d="M0 0 C0.33 0 0.66 0 1 0 C1 15.18 1 30.36 1 46 C0.67 46 0.34 46 0 46 C0 30.82 0 15.64 0 0 Z " fill="#FB574C" transform="translate(137,58)"/>
<path d="M0 0 C14.19 0 28.38 0 43 0 C43 0.33 43 0.66 43 1 C28.81 1 14.62 1 0 1 C0 0.67 0 0.34 0 0 Z " fill="#FC4040" transform="translate(217,105)"/>
<path d="M0 0 C0.33 0 0.66 0 1 0 C1.33 2.64 1.66 5.28 2 8 C1.10075806 8.029729 1.10075806 8.029729 0.18334961 8.06005859 C-2.56566471 8.15605003 -5.31399493 8.26542505 -8.0625 8.375 C-9.47692383 8.42140625 -9.47692383 8.42140625 -10.91992188 8.46875 C-16.27566579 8.69268354 -20.92098241 9.26707583 -26 11 C-24.703125 8.48828125 -24.703125 8.48828125 -22 6 C-18.21577117 5.49569359 -14.5411379 5.85312933 -10.75 6.1875 C-9.71875 6.25775391 -8.6875 6.32800781 -7.625 6.40039062 C-5.08070614 6.5770777 -2.54064866 6.7777091 0 7 C0 4.69 0 2.38 0 0 Z " fill="#F3410F" transform="translate(119,59)"/>
<path d="M0 0 C0.33 0.66 0.66 1.32 1 2 C0.67 2.99 0.34 3.98 0 5 C-0.08106686 6.55421729 -0.10756898 8.11167027 -0.09765625 9.66796875 C-0.09443359 10.56064453 -0.09121094 11.45332031 -0.08789062 12.37304688 C-0.07951172 13.30181641 -0.07113281 14.23058594 -0.0625 15.1875 C-0.05798828 16.12787109 -0.05347656 17.06824219 -0.04882812 18.03710938 C-0.03704626 20.35813712 -0.02059558 22.67903644 0 25 C-3.74753535 21.25246465 -2.96518239 15.07756818 -3 10 C-2.00473934 2.00473934 -2.00473934 2.00473934 0 0 Z " fill="#F73D32" transform="translate(167,60)"/>
<path d="M0 0 C0.33 0 0.66 0 1 0 C3.20192273 9.60677578 2.47956658 18.82471431 -1 28 C-2 25 -2 25 -1.0625 21.3125 C0.66471391 14.33409211 0.1575817 7.13494939 0 0 Z " fill="#E74539" transform="translate(327,62)"/>
<path d="M0 0 C0.78632813 0.16371094 1.57265625 0.32742187 2.3828125 0.49609375 C6.90846849 1.12655771 11.31329568 1.10715524 15.875 1.0625 C16.75414062 1.05798828 17.63328125 1.05347656 18.5390625 1.04882812 C20.69273803 1.03712337 22.84637817 1.01919069 25 1 C19.42990842 4.71339439 12.93099624 4.37289408 6.5 3.1875 C3.38239822 2.53142241 2.29250202 2.29250202 0 0 Z " fill="#F7453A" transform="translate(285,104)"/>
<path d="M0 0 C0.33 0 0.66 0 1 0 C0.98839844 1.03898437 0.97679687 2.07796875 0.96484375 3.1484375 C0.9058662 10.83026349 0.97279335 18.36932205 2 26 C-1.13280959 21.30078562 -1.13798673 17.05831873 -1.125 11.5 C-1.12757813 10.3965625 -1.13015625 9.293125 -1.1328125 8.15625 C-1.01325821 5.31507756 -0.64925815 2.76192358 0 0 Z " fill="#F14E3E" transform="translate(269,62)"/>
<path d="M0 0 C0.33 0 0.66 0 1 0 C3.12213611 8.22327744 2.09460412 15.2082289 -1 23 C-2.30724829 20.38550342 -1.75040838 19.37258325 -1.0625 16.5625 C0.1483255 10.99595324 0.19414559 5.67336562 0 0 Z " fill="#F13B2D" transform="translate(309,64)"/>
<path d="M0 0 C1.09037513 3.40035503 0.93650206 6.15525835 0.5625 9.6875 C0.0703853 14.82946774 -0.08604511 19.83729325 0 25 C-0.33 25 -0.66 25 -1 25 C-2.46876557 16.18740657 -1.9930816 8.68414125 0 0 Z " fill="#F83327" transform="translate(148,59)"/>
<path d="M0 0 C0.33 0 0.66 0 1 0 C1 8.91 1 17.82 1 27 C0.01 26.01 -0.98 25.02 -2 24 C-1.34 24 -0.68 24 0 24 C0 16.08 0 8.16 0 0 Z " fill="#F96F68" transform="translate(187,18)"/>
<path d="M0 0 C0.33 0 0.66 0 1 0 C1 8.58 1 17.16 1 26 C0.01 25.67 -0.98 25.34 -2 25 C-1.34 24.67 -0.68 24.34 0 24 C0 16.08 0 8.16 0 0 Z " fill="#FD0906" transform="translate(426,18)"/>
<path d="M0 0 C2.14290102 4.28580203 2.26774108 7.30463319 2.1875 11.9375 C2.18685547 12.64068359 2.18621094 13.34386719 2.18554688 14.06835938 C2.15381877 17.82990266 1.8945001 21.34328359 1 25 C0.67 25 0.34 25 0 25 C0 16.75 0 8.5 0 0 Z " fill="#E7453C" transform="translate(186,61)"/>
<path d="M0 0 C0.93714922 3.11751998 1.05686895 5.74149909 0.87890625 8.984375 C0.83056641 9.91894531 0.78222656 10.85351562 0.73242188 11.81640625 C0.64831055 13.26853516 0.64831055 13.26853516 0.5625 14.75 C0.51029297 15.73355469 0.45808594 16.71710938 0.40429688 17.73046875 C0.27488563 20.15398849 0.13993095 22.57706864 0 25 C-0.33 25 -0.66 25 -1 25 C-1.02900455 21.3958502 -1.04680018 17.79173038 -1.0625 14.1875 C-1.07087891 13.16333984 -1.07925781 12.13917969 -1.08789062 11.08398438 C-1.09111328 10.10107422 -1.09433594 9.11816406 -1.09765625 8.10546875 C-1.10289307 7.19949951 -1.10812988 6.29353027 -1.11352539 5.36010742 C-1 3 -1 3 0 0 Z " fill="#F02709" transform="translate(387,59)"/>
<path d="M0 0 C0.33 0 0.66 0 1 0 C0.98839844 0.76183594 0.97679687 1.52367188 0.96484375 2.30859375 C0.90952706 8.63840322 1.1634074 14.72555549 2 21 C-1.2963936 17.7036064 -1.06546747 13.97238144 -1.125 9.5 C-1.09212586 6.21806477 -0.82415191 3.19358865 0 0 Z " fill="#FA493C" transform="translate(287,64)"/>
<path d="M0 0 C0.33 0 0.66 0 1 0 C0.98839844 0.67804688 0.97679687 1.35609375 0.96484375 2.0546875 C0.90291649 8.44204207 1.22981132 14.65969676 2 21 C-0.70530779 18.29469221 -0.42456887 16.52586342 -0.6875 12.75 C-0.77386719 11.63109375 -0.86023438 10.5121875 -0.94921875 9.359375 C-0.99858317 6.09372851 -0.64378055 3.19470049 0 0 Z " fill="#EA4E32" transform="translate(404,64)"/>
<path d="M0 0 C2.2477975 2.05233685 3.0022242 3.00667261 4 6 C4.07051114 8.73865287 4.09357765 11.45027588 4.0625 14.1875 C4.05798828 14.93708984 4.05347656 15.68667969 4.04882812 16.45898438 C4.03706354 18.30602383 4.01912865 20.15302213 4 22 C3.67 22 3.34 22 3 22 C2.95101562 20.99839844 2.90203125 19.99679688 2.8515625 18.96484375 C2.77645921 17.62237241 2.70091474 16.2799257 2.625 14.9375 C2.55539063 13.62652344 2.48578125 12.31554687 2.4140625 10.96484375 C2.00194564 7.01863043 1.20243433 3.75882927 0 0 Z " fill="#ED443D" transform="translate(74,38)"/>
<path d="M0 0 C1.03125 -0.01417969 2.0625 -0.02835938 3.125 -0.04296875 C5.96545203 0.18473053 7.59107948 0.72245939 10 2.1875 C8.99839844 2.17589844 7.99679688 2.16429687 6.96484375 2.15234375 C5.62239772 2.14295602 4.27994964 2.13385688 2.9375 2.125 C1.62652344 2.11339844 0.31554687 2.10179687 -1.03515625 2.08984375 C-4.8163519 2.18297665 -8.27920707 2.57301274 -12 3.1875 C-8.53094612 -0.28155388 -4.7441652 0.02965103 0 0 Z " fill="#F04334" transform="translate(112,38.8125)"/>
<path d="M0 0 C0.95003906 -0.01417969 1.90007812 -0.02835938 2.87890625 -0.04296875 C5.4375 0.1875 5.4375 0.1875 8.4375 2.1875 C7.58027344 2.17589844 6.72304688 2.16429687 5.83984375 2.15234375 C-0.07110552 2.1056959 -5.74406704 2.10500084 -11.5625 3.1875 C-8.19744638 -0.17755362 -4.60753873 0.0313438 0 0 Z " fill="#DF4D33" transform="translate(249.5625,13.8125)"/>
<path d="M0 0 C3.625 1 3.625 1 6 2 C2.68605847 3.10464718 2.19942339 2.82254679 -1 2 C-3.08234592 1.93256652 -5.16668557 1.91485528 -7.25 1.9375 C-8.32765625 1.94652344 -9.4053125 1.95554688 -10.515625 1.96484375 C-11.74539063 1.98224609 -11.74539063 1.98224609 -13 2 C-8.74087527 -0.83941649 -4.9984397 -0.40297498 0 0 Z " fill="#F94E3A" transform="translate(418,39)"/>
<path d="M0 0 C3.625 1 3.625 1 6 2 C2.68605847 3.10464718 2.19942339 2.82254679 -1 2 C-3.08234592 1.93256652 -5.16668557 1.91485528 -7.25 1.9375 C-8.32765625 1.94652344 -9.4053125 1.95554688 -10.515625 1.96484375 C-11.74539062 1.98224609 -11.74539062 1.98224609 -13 2 C-8.74087527 -0.83941649 -4.9984397 -0.40297498 0 0 Z " fill="#FF4E34" transform="translate(179,39)"/>
<path d="M0 0 C1.485 0.99 1.485 0.99 3 2 C5.58885171 2.29991069 8.09149082 2.50865225 10.6875 2.625 C11.7403418 2.68300781 11.7403418 2.68300781 12.81445312 2.7421875 C14.54254655 2.8362334 16.27123675 2.9191968 18 3 C18 3.33 18 3.66 18 4 C12.72 4 7.44 4 2 4 C1.34 2.68 0.68 1.36 0 0 Z " fill="#F13231" transform="translate(59,102)"/>
<path d="M0 0 C5.61 0 11.22 0 17 0 C16.67 1.65 16.34 3.3 16 5 C15.67 3.68 15.34 2.36 15 1 C10.05 1 5.1 1 0 1 C0 0.67 0 0.34 0 0 Z " fill="#FF1913" transform="translate(104,81)"/>
<path d="M0 0 C0.9384375 -0.00515625 1.876875 -0.0103125 2.84375 -0.015625 C5.5 0.25 5.5 0.25 9.5 2.25 C3.23 2.25 -3.04 2.25 -9.5 2.25 C-5.62032314 0.31016157 -4.15215986 -0.02281407 0 0 Z " fill="#FF5340" transform="translate(298.5,38.75)"/>
<path d="M0 0 C5.61 0.33 11.22 0.66 17 1 C17 1.33 17 1.66 17 2 C10.77104914 3.13253652 6.08251096 2.70366626 0 1 C0 0.67 0 0.34 0 0 Z " fill="#F64D4B" transform="translate(97,105)"/>
<path d="M0 0 C0.33 0 0.66 0 1 0 C0.979375 0.99 0.95875 1.98 0.9375 3 C0.92918572 7.06568074 1.43531533 10.97662176 2 15 C-0.45406016 12.54593984 -0.38381215 11.4528512 -0.6875 8.0625 C-0.77386719 7.18722656 -0.86023438 6.31195313 -0.94921875 5.41015625 C-1 3 -1 3 0 0 Z " fill="#E4463C" transform="translate(84,80)"/>
<path d="M0 0 C0.33 0 0.66 0 1 0 C1 5.94 1 11.88 1 18 C0.67 18 0.34 18 0 18 C0 12.06 0 6.12 0 0 Z " fill="#F00700" transform="translate(426,64)"/>
<path d="M0 0 C0.79664063 0.07863281 1.59328125 0.15726563 2.4140625 0.23828125 C3.06117188 0.38652344 3.70828125 0.53476562 4.375 0.6875 C4.705 1.3475 5.035 2.0075 5.375 2.6875 C4.78332031 2.60371094 4.19164062 2.51992188 3.58203125 2.43359375 C-0.72439457 1.87860576 -4.38052644 1.45523348 -8.625 2.6875 C-6.77844321 -1.00561358 -3.61298572 -0.39425088 0 0 Z " fill="#F84438" transform="translate(366.625,56.3125)"/>
<path d="M0 0 C4.62 0 9.24 0 14 0 C14 0.33 14 0.66 14 1 C8.97874074 1.77916092 5.02296004 2.13016601 0 1 C0 0.67 0 0.34 0 0 Z " fill="#E24942" transform="translate(406,106)"/>
<path d="M0 0 C4.62 0 9.24 0 14 0 C14 0.33 14 0.66 14 1 C8.97874074 1.77916092 5.02296004 2.13016601 0 1 C0 0.67 0 0.34 0 0 Z " fill="#DE4841" transform="translate(167,106)"/>
<path d="M0 0 C0.7734375 -0.00515625 1.546875 -0.0103125 2.34375 -0.015625 C4.5 0.25 4.5 0.25 7.5 2.25 C2.55 2.25 -2.4 2.25 -7.5 2.25 C-4.377998 0.16866533 -3.56733011 -0.0237822 0 0 Z " fill="#F34738" transform="translate(367.5,38.75)"/>
<path d="M0 0 C4.95 0 9.9 0 15 0 C15 0.33 15 0.66 15 1 C10.05 1 5.1 1 0 1 C0 0.67 0 0.34 0 0 Z " fill="#F63737" transform="translate(18,105)"/>
<path d="M0 0 C2.80722691 4.21084037 1.94537893 6.11554218 1 11 C0.01 11.495 0.01 11.495 -1 12 C-0.73958333 10.046875 -0.47916667 8.09375 -0.21875 6.140625 C0.06777357 3.69541605 0.06777357 3.69541605 0 0 Z " fill="#FFFFFF" transform="translate(475,89)"/>
<path d="M0 0 C1.14889133 3.93905597 1.52582695 7.93565958 2 12 C1.34 11.67 0.68 11.34 0 11 C-1.27368421 3.82105263 -1.27368421 3.82105263 0 0 Z " fill="#FFFFFF" transform="translate(454,89)"/>
<path d="M0 0 C4.29 0 8.58 0 13 0 C8.93150591 2.71232939 6.83523216 2.30699887 2 2 C1.34 1.34 0.68 0.68 0 0 Z " fill="#F44B30" transform="translate(103,89)"/>
<path d="M0 0 C0.99 0.66 1.98 1.32 3 2 C-1.29 2 -5.58 2 -10 2 C-6.31282562 -0.45811625 -4.35654296 -0.31118164 0 0 Z " fill="#E93C38" transform="translate(419,56)"/>
<path d="M0 0 C0.99 0.66 1.98 1.32 3 2 C-1.29 2 -5.58 2 -10 2 C-6.31282562 -0.45811625 -4.35654296 -0.31118164 0 0 Z " fill="#F5473A" transform="translate(302,56)"/>
<path d="M0 0 C0.99 0.66 1.98 1.32 3 2 C-1.29 2 -5.58 2 -10 2 C-6.31282562 -0.45811625 -4.35654296 -0.31118164 0 0 Z " fill="#EA3C36" transform="translate(180,56)"/>
<path d="M0 0 C4.62 0 9.24 0 14 0 C14 0.33 14 0.66 14 1 C9.38 1 4.76 1 0 1 C0 0.67 0 0.34 0 0 Z " fill="#FF4940" transform="translate(340,105)"/>
<path d="M0 0 C-2.64458379 1.32229189 -4.67761301 1.09677194 -7.625 1.0625 C-8.62789062 1.05347656 -9.63078125 1.04445313 -10.6640625 1.03515625 C-11.43492187 1.02355469 -12.20578125 1.01195313 -13 1 C-13 0.67 -13 0.34 -13 0 C-11.39679026 -0.19551338 -9.79237014 -0.38111983 -8.1875 -0.5625 C-7.29417969 -0.66691406 -6.40085938 -0.77132812 -5.48046875 -0.87890625 C-3 -1 -3 -1 0 0 Z " fill="#F5493B" transform="translate(184,89)"/>
<path d="M0 0 C4.62 0 9.24 0 14 0 C14 0.33 14 0.66 14 1 C9.38 1 4.76 1 0 1 C0 0.67 0 0.34 0 0 Z " fill="#FC5D2E" transform="translate(428,15)"/>
<path d="M0 0 C4.62 0 9.24 0 14 0 C14 0.33 14 0.66 14 1 C9.38 1 4.76 1 0 1 C0 0.67 0 0.34 0 0 Z " fill="#F85D2E" transform="translate(189,15)"/>
<path d="M0 0 C4.29 0 8.58 0 13 0 C13 0.33 13 0.66 13 1 C8.71 1 4.42 1 0 1 C0 0.67 0 0.34 0 0 Z " fill="#F83C3C" transform="translate(123,105)"/>
<path d="M0 0 C0.33 0 0.66 0 1 0 C1 4.29 1 8.58 1 13 C0.67 13 0.34 13 0 13 C0 8.71 0 4.42 0 0 Z " fill="#E34C4C" transform="translate(261,91)"/>
<path d="M0 0 C0.33 0 0.66 0 1 0 C1 4.29 1 8.58 1 13 C0.67 13 0.34 13 0 13 C0 8.71 0 4.42 0 0 Z " fill="#FF6C00" transform="translate(214,91)"/>
<path d="M0 0 C4.29 0 8.58 0 13 0 C13 0.33 13 0.66 13 1 C8.71 1 4.42 1 0 1 C0 0.67 0 0.34 0 0 Z " fill="#C44747" transform="translate(340,40)"/>
<path d="M0 0 C0.33 0 0.66 0 1 0 C1 1.98 1 3.96 1 6 C-1.64 6 -4.28 6 -7 6 C-7 5.67 -7 5.34 -7 5 C-4.69 5 -2.38 5 0 5 C0 3.35 0 1.7 0 0 Z " fill="#E45648" transform="translate(224,35)"/>
<path d="M0 0 C3.96 0 7.92 0 12 0 C12 0.33 12 0.66 12 1 C8.04 1 4.08 1 0 1 C0 0.67 0 0.34 0 0 Z " fill="#F44040" transform="translate(430,105)"/>
<path d="M0 0 C3.96 0 7.92 0 12 0 C12 0.33 12 0.66 12 1 C8.04 1 4.08 1 0 1 C0 0.67 0 0.34 0 0 Z " fill="#F94141" transform="translate(191,105)"/>
<path d="M0 0 C0.66 0.33 1.32 0.66 2 1 C1.67 2.98 1.34 4.96 1 7 C0.34 6.67 -0.32 6.34 -1 6 C-0.67 4.02 -0.34 2.04 0 0 Z " fill="#FA4019" transform="translate(102,82)"/>
<path d="M0 0 C0.33 0 0.66 0 1 0 C1 3.96 1 7.92 1 12 C0.67 12 0.34 12 0 12 C0 8.04 0 4.08 0 0 Z " fill="#9F0A00" transform="translate(265,43)"/>
<path d="M0 0 C0.33 0 0.66 0 1 0 C1 3.96 1 7.92 1 12 C0.67 12 0.34 12 0 12 C0 8.04 0 4.08 0 0 Z " fill="#FF750A" transform="translate(214,43)"/>
<path d="M0 0 C1.98 1.65 3.96 3.3 6 5 C3 5 3 5 1.3125 3.625 C0 2 0 2 0 0 Z " fill="#F84D24" transform="translate(276,96)"/>
<path d="M0 0 C3.63 0 7.26 0 11 0 C11 0.33 11 0.66 11 1 C7.37 1 3.74 1 0 1 C0 0.67 0 0.34 0 0 Z " fill="#F34D3B" transform="translate(410,89)"/>
<path d="M0 0 C3.63 0 7.26 0 11 0 C11 0.33 11 0.66 11 1 C7.37 1 3.74 1 0 1 C0 0.67 0 0.34 0 0 Z " fill="#F84C3F" transform="translate(293,89)"/>
<path d="M0 0 C2.97 0 5.94 0 9 0 C9 0.33 9 0.66 9 1 C5.7 1.33 2.4 1.66 -1 2 C-0.67 1.34 -0.34 0.68 0 0 Z " fill="#F25D49" transform="translate(245,31)"/>
<path d="M0 0 C0.99 0.33 1.98 0.66 3 1 C3.33 2.65 3.66 4.3 4 6 C0 1.125 0 1.125 0 0 Z " fill="#F74C4C" transform="translate(305,58)"/>
<path d="M0 0 C1.98 0.66 3.96 1.32 6 2 C5.01 2.33 4.02 2.66 3 3 C2.01 2.01 1.02 1.02 0 0 Z " fill="#EF5B3F" transform="translate(400,103)"/>
<path d="M0 0 C1.98 0.66 3.96 1.32 6 2 C5.01 2.33 4.02 2.66 3 3 C2.01 2.01 1.02 1.02 0 0 Z " fill="#EF552F" transform="translate(161,103)"/>
<path d="M0 0 C0.33 0.66 0.66 1.32 1 2 C0.01 3.32 -0.98 4.64 -2 6 C-1.125 1.125 -1.125 1.125 0 0 Z " fill="#EF4822" transform="translate(151,53)"/>
<path d="M0 0 C0.33 0.66 0.66 1.32 1 2 C0.01 3.32 -0.98 4.64 -2 6 C-1.125 1.125 -1.125 1.125 0 0 Z " fill="#F73F29" transform="translate(390,53)"/>
<path d="M0 0 C0.99 0.99 1.98 1.98 3 3 C2.67 3.99 2.34 4.98 2 6 C1.34 4.02 0.68 2.04 0 0 Z " fill="#FF4139" transform="translate(323,53)"/>
<path d="M0 0 C0 0.99 0 1.98 0 3 C-0.99 3.66 -1.98 4.32 -3 5 C-1.125 1.125 -1.125 1.125 0 0 Z " fill="#F8432C" transform="translate(381,51)"/>
<path d="M0 0 C0.33 0.66 0.66 1.32 1 2 C0.01 3.32 -0.98 4.64 -2 6 C-1.125 1.125 -1.125 1.125 0 0 Z " fill="#EF4B32" transform="translate(273,53)"/>
<path d="M0 0 C0.99 0.33 1.98 0.66 3 1 C1.02 1.66 -0.96 2.32 -3 3 C-2.01 2.01 -1.02 1.02 0 0 Z " fill="#D34024" transform="translate(163,41)"/>
<path d="M0 0 C2.4375 0.375 2.4375 0.375 5 1 C5.33 1.66 5.66 2.32 6 3 C4.02 2.34 2.04 1.68 0 1 C0 0.67 0 0.34 0 0 Z " fill="#EB3923" transform="translate(122,41)"/>
<path d="M0 0 C0.99 1.485 0.99 1.485 2 3 C1.67 3.99 1.34 4.98 1 6 C0.67 4.02 0.34 2.04 0 0 Z " fill="#EC3F38" transform="translate(148,84)"/>
<path d="M0 0 C1.32 1.32 2.64 2.64 4 4 C2.68 3.34 1.36 2.68 0 2 C0 1.34 0 0.68 0 0 Z " fill="#F43730" transform="translate(406,85)"/>
<path d="M0 0 C1.32 1.32 2.64 2.64 4 4 C2.68 3.34 1.36 2.68 0 2 C0 1.34 0 0.68 0 0 Z " fill="#F1382D" transform="translate(167,85)"/>
<path d="M0 0 C1.98 0.99 1.98 0.99 4 2 C3.67 2.66 3.34 3.32 3 4 C2.01 2.68 1.02 1.36 0 0 Z " fill="#FFFFFF" transform="translate(470,84)"/>
<path d="M0 0 C0.66 0.33 1.32 0.66 2 1 C0.68 1.99 -0.64 2.98 -2 4 C-1.34 2.68 -0.68 1.36 0 0 Z " fill="#F73722" transform="translate(91,70)"/>
<path d="M0 0 C2.475 0.99 2.475 0.99 5 2 C4.01 2.495 4.01 2.495 3 3 C2.01 2.01 1.02 1.02 0 0 Z " fill="#EF2D1F" transform="translate(92,62)"/>
<path d="M0 0 C1.98 0 3.96 0 6 0 C6 0.33 6 0.66 6 1 C4.02 1 2.04 1 0 1 C0 0.67 0 0.34 0 0 Z " fill="#FFFFFF" transform="translate(462,82)"/>
<path d="M0 0 C1.98 0 3.96 0 6 0 C6 0.33 6 0.66 6 1 C4.02 1 2.04 1 0 1 C0 0.67 0 0.34 0 0 Z " fill="#FF4646" transform="translate(109,56)"/>
<path d="M0 0 C1.98 0.99 1.98 0.99 4 2 C3.01 2 2.02 2 1 2 C0.67 1.34 0.34 0.68 0 0 Z " fill="#FF3D2F" transform="translate(66,30)"/>
<path d="M0 0 C1.98 0.99 1.98 0.99 4 2 C2.68 1.67 1.36 1.34 0 1 C0 0.67 0 0.34 0 0 Z " fill="#FFFFFF" transform="translate(459,104)"/>
<path d="M0 0 C0.66 1.32 1.32 2.64 2 4 C1.34 3.67 0.68 3.34 0 3 C0 2.01 0 1.02 0 0 Z " fill="#FF2A2A" transform="translate(53,91)"/>
<path d="M0 0 C0 0.99 0 1.98 0 3 C-0.66 2.67 -1.32 2.34 -2 2 C-1.34 1.34 -0.68 0.68 0 0 Z " fill="#E84E48" transform="translate(118,86)"/>
<path d="M0 0 C0.66 0.33 1.32 0.66 2 1 C1.01 1.66 0.02 2.32 -1 3 C-0.67 2.01 -0.34 1.02 0 0 Z " fill="#FFFFFF" transform="translate(457,85)"/>
<path d="M0 0 C0.33 0.66 0.66 1.32 1 2 C0.34 2.66 -0.32 3.32 -1 4 C-0.67 2.68 -0.34 1.36 0 0 Z " fill="#DA5F51" transform="translate(406,60)"/>
<path d="M0 0 C0.33 0.66 0.66 1.32 1 2 C0.34 2.66 -0.32 3.32 -1 4 C-0.67 2.68 -0.34 1.36 0 0 Z " fill="#FF5D37" transform="translate(289,60)"/>
<path d="M0 0 C1.32 0.33 2.64 0.66 4 1 C3.01 1.495 3.01 1.495 2 2 C1.34 1.34 0.68 0.68 0 0 Z " fill="#F74036" transform="translate(54,43)"/>
<path d="M0 0 C0.99 0.33 1.98 0.66 3 1 C1.68 1.33 0.36 1.66 -1 2 C-0.67 1.34 -0.34 0.68 0 0 Z " fill="#EC453D" transform="translate(402,41)"/>
<path d="M0 0 C0.33 0 0.66 0 1 0 C1 1.65 1 3.3 1 5 C0.67 5 0.34 5 0 5 C0 3.35 0 1.7 0 0 Z " fill="#F83A30" transform="translate(242,34)"/>
<path d="M0 0 C4 1 4 1 4 1 Z " fill="#FFFFFF" transform="translate(463,106)"/>
<path d="M0 0 C0.99 0.33 1.98 0.66 3 1 C2.01 1 1.02 1 0 1 C0 0.67 0 0.34 0 0 Z " fill="#FF6A42" transform="translate(282,102)"/>
<path d="M0 0 C0.99 0.33 1.98 0.66 3 1 C2.01 1 1.02 1 0 1 C0 0.67 0 0.34 0 0 Z " fill="#D4673D" transform="translate(92,102)"/>
<path d="M0 0 C0.99 0.33 1.98 0.66 3 1 C2.01 1 1.02 1 0 1 C0 0.67 0 0.34 0 0 Z " fill="#DF5830" transform="translate(397,101)"/>
<path d="M0 0 C0 3 0 3 0 3 Z " fill="#F0332C" transform="translate(188,101)"/>
<path d="M0 0 C0.99 0.33 1.98 0.66 3 1 C2.01 1 1.02 1 0 1 C0 0.67 0 0.34 0 0 Z " fill="#FF5D35" transform="translate(158,101)"/>
<path d="M0 0 C0.66 0.33 1.32 0.66 2 1 C1.01 1 0.02 1 -1 1 C-0.67 0.67 -0.34 0.34 0 0 Z " fill="#F75D55" transform="translate(316,100)"/>
<path d="M0 0 C0.99 0.495 0.99 0.495 2 1 C1.67 1.66 1.34 2.32 1 3 C0.67 2.01 0.34 1.02 0 0 Z " fill="#F44A40" transform="translate(56,97)"/>
<path d="M0 0 C0.99 0.495 0.99 0.495 2 1 C1.67 1.66 1.34 2.32 1 3 C0.67 2.01 0.34 1.02 0 0 Z " fill="#F2392C" transform="translate(76,97)"/>
<path d="M0 0 C0.99 0.495 0.99 0.495 2 1 C1.67 1.66 1.34 2.32 1 3 C0.67 2.01 0.34 1.02 0 0 Z " fill="#DE2E27" transform="translate(86,95)"/>
<path d="M0 0 C0.99 0.495 0.99 0.495 2 1 C1.67 1.66 1.34 2.32 1 3 C0.67 2.01 0.34 1.02 0 0 Z " fill="#F24437" transform="translate(392,95)"/>
<path d="M0 0 C0.99 0.495 0.99 0.495 2 1 C1.67 1.66 1.34 2.32 1 3 C0.67 2.01 0.34 1.02 0 0 Z " fill="#FF6242" transform="translate(153,95)"/>
<path d="M0 0 C0.99 0.495 0.99 0.495 2 1 C1.67 1.66 1.34 2.32 1 3 C0.67 2.01 0.34 1.02 0 0 Z " fill="#FF6464" transform="translate(74,94)"/>
<path d="M0 0 C0.99 0.495 0.99 0.495 2 1 C1.67 1.66 1.34 2.32 1 3 C0.67 2.01 0.34 1.02 0 0 Z " fill="#F44A19" transform="translate(69,86)"/>
<path d="M0 0 C1 4 1 4 1 4 Z " fill="#FF4040" transform="translate(387,84)"/>
<path d="M0 0 C0.99 0.495 0.99 0.495 2 1 C1.67 1.66 1.34 2.32 1 3 C0.67 2.01 0.34 1.02 0 0 Z " fill="#FF4720" transform="translate(48,83)"/>
<path d="M0 0 C0.99 0.495 0.99 0.495 2 1 C1.67 1.66 1.34 2.32 1 3 C0.67 2.01 0.34 1.02 0 0 Z " fill="#FF3F38" transform="translate(46,80)"/>
<path d="M0 0 C0.99 0.495 0.99 0.495 2 1 C1.67 1.66 1.34 2.32 1 3 C0.67 2.01 0.34 1.02 0 0 Z " fill="#FF2525" transform="translate(64,77)"/>
<path d="M0 0 C0.66 0.33 1.32 0.66 2 1 C1.01 1 0.02 1 -1 1 C-0.67 0.67 -0.34 0.34 0 0 Z " fill="#F83E2B" transform="translate(66,73)"/>
<path d="M0 0 C0 3 0 3 0 3 Z " fill="#E9625A" transform="translate(74,65)"/>
<path d="M0 0 C0 3 0 3 0 3 Z " fill="#F0453E" transform="translate(87,53)"/>
<path d="M0 0 C0 3 0 3 0 3 Z " fill="#E83A33" transform="translate(89,50)"/>
<path d="M0 0 C0 3 0 3 0 3 Z " fill="#F83A33" transform="translate(275,50)"/>
<path d="M0 0 C0.99 0.33 1.98 0.66 3 1 C2.01 1 1.02 1 0 1 C0 0.67 0 0.34 0 0 Z " fill="#FF3B2F" transform="translate(313,43)"/>
<path d="M0 0 C0.66 0.33 1.32 0.66 2 1 C1.01 1 0.02 1 -1 1 C-0.67 0.67 -0.34 0.34 0 0 Z " fill="#FF6134" transform="translate(96,43)"/>
<path d="M0 0 C0.99 0.33 1.98 0.66 3 1 C2.01 1 1.02 1 0 1 C0 0.67 0 0.34 0 0 Z " fill="#F44E37" transform="translate(377,42)"/>
<path d="M0 0 C0.66 0.33 1.32 0.66 2 1 C1.01 1 0.02 1 -1 1 C-0.67 0.67 -0.34 0.34 0 0 Z " fill="#FF3515" transform="translate(260,35)"/>
<path d="M0 0 C0.99 0.495 0.99 0.495 2 1 C1.67 1.66 1.34 2.32 1 3 C0.67 2.01 0.34 1.02 0 0 Z " fill="#EF3830" transform="translate(72,35)"/>
<path d="M0 0 C1 4 1 4 1 4 Z " fill="#FF5535" transform="translate(225,30)"/>
<path d="M0 0 C0.66 0.33 1.32 0.66 2 1 C1.01 1 0.02 1 -1 1 C-0.67 0.67 -0.34 0.34 0 0 Z " fill="#F2542C" transform="translate(265,31)"/>
<path d="M0 0 C0 3 0 3 0 3 Z " fill="#FF6060" transform="translate(228,24)"/>
<path d="M0 0 C0.66 0.33 1.32 0.66 2 1 C1.01 1 0.02 1 -1 1 C-0.67 0.67 -0.34 0.34 0 0 Z " fill="#FF5D35" transform="translate(233,19)"/>
<path d="M0 0 C0.99 0.33 1.98 0.66 3 1 C2.01 1 1.02 1 0 1 C0 0.67 0 0.34 0 0 Z " fill="#FF3A33" transform="translate(262,18)"/>
<path d="M0 0 C3 1 3 1 3 1 Z " fill="#FFFFFF" transform="translate(467,105)"/>
<path d="M0 0 C3 1 3 1 3 1 Z " fill="#D45547" transform="translate(420,105)"/>
<path d="M0 0 C3 1 3 1 3 1 Z " fill="#D45547" transform="translate(181,105)"/>
<path d="M0 0 C3 1 3 1 3 1 Z " fill="#DB5C4E" transform="translate(114,105)"/>
<path d="M0 0 C0.33 0.66 0.66 1.32 1 2 C0.34 1.67 -0.32 1.34 -1 1 C-0.67 0.67 -0.34 0.34 0 0 Z " fill="#E94747" transform="translate(427,101)"/>
<path d="M0 0 C0.33 0.66 0.66 1.32 1 2 C0.34 1.67 -0.32 1.34 -1 1 C-0.67 0.67 -0.34 0.34 0 0 Z " fill="#FF675C" transform="translate(121,101)"/>
<path d="" fill="#E23131" transform="translate(0,0)"/>
<path d="M0 0 C0.99 0.495 0.99 0.495 2 1 C1.01 1.495 1.01 1.495 0 2 C0 1.34 0 0.68 0 0 Z " fill="#F74949" transform="translate(63,75)"/>
<path d="" fill="#EE4949" transform="translate(0,0)"/>
<path d="" fill="#EB473D" transform="translate(0,0)"/>
<path d="" fill="#FF5342" transform="translate(0,0)"/>
<path d="M0 0 C0.66 0 1.32 0 2 0 C1.67 0.66 1.34 1.32 1 2 C0.67 1.34 0.34 0.68 0 0 Z " fill="#FF3838" transform="translate(423,59)"/>
<path d="M0 0 C3 1 3 1 3 1 Z " fill="#FF5F56" transform="translate(115,57)"/>
<path d="M0 0 C3 1 3 1 3 1 Z " fill="#F66060" transform="translate(106,57)"/>
<path d="" fill="#FF5645" transform="translate(0,0)"/>
<path d="M0 0 C0.66 0 1.32 0 2 0 C1.67 0.66 1.34 1.32 1 2 C0.67 1.34 0.34 0.68 0 0 Z " fill="#FF4747" transform="translate(382,46)"/>
<path d="M0 0 C0.99 0.495 0.99 0.495 2 1 C1.01 1.495 1.01 1.495 0 2 C0 1.34 0 0.68 0 0 Z " fill="#EC5F2D" transform="translate(354,43)"/>
<path d="M0 0 C3 1 3 1 3 1 Z " fill="#FF6958" transform="translate(308,41)"/>
<path d="M0 0 C3 1 3 1 3 1 Z " fill="#EE582D" transform="translate(286,41)"/>
<path d="" fill="#FF0000" transform="translate(0,0)"/>
<path d="M0 0 C2 1 2 1 2 1 Z " fill="#C24F4F" transform="translate(423,104)"/>
<path d="M0 0 C2 1 2 1 2 1 Z " fill="#ED4444" transform="translate(310,104)"/>
<path d="M0 0 C2 1 2 1 2 1 Z " fill="#ED6464" transform="translate(184,104)"/>
<path d="M0 0 C2 1 2 1 2 1 Z " fill="#C24F4F" transform="translate(117,104)"/>
<path d="M0 0 C2 1 2 1 2 1 Z " fill="#EA5D2F" transform="translate(95,104)"/>
<path d="M0 0 C2 1 2 1 2 1 Z " fill="#EF4A4A" transform="translate(312,103)"/>
<path d="" fill="#FF4000" transform="translate(0,0)"/>
<path d="" fill="#FF6A6A" transform="translate(0,0)"/>
<path d="" fill="#EF4A4A" transform="translate(0,0)"/>
<path d="" fill="#FF5555" transform="translate(0,0)"/>
<path d="" fill="#FF5339" transform="translate(0,0)"/>
<path d="" fill="#EF6060" transform="translate(0,0)"/>
<path d="" fill="#F15547" transform="translate(0,0)"/>
<path d="" fill="#ED4444" transform="translate(0,0)"/>
<path d="" fill="#D14A3C" transform="translate(0,0)"/>
<path d="" fill="#DF4040" transform="translate(0,0)"/>
<path d="" fill="#EF5339" transform="translate(0,0)"/>
<path d="" fill="#FF4F4F" transform="translate(0,0)"/>
<path d="" fill="#FF6633" transform="translate(0,0)"/>
<path d="" fill="#FF573E" transform="translate(0,0)"/>
<path d="" fill="#FF5555" transform="translate(0,0)"/>
<path d="" fill="#FF573E" transform="translate(0,0)"/>
<path d="M0 0 C2 1 2 1 2 1 Z " fill="#FF4F41" transform="translate(421,88)"/>
<path d="M0 0 C2 1 2 1 2 1 Z " fill="#F25940" transform="translate(304,88)"/>
<path d="M0 0 C2 1 2 1 2 1 Z " fill="#F14F41" transform="translate(291,88)"/>
<path d="" fill="#ED4F4F" transform="translate(0,0)"/>
<path d="" fill="#FF5040" transform="translate(0,0)"/>
<path d="" fill="#FF7359" transform="translate(0,0)"/>
<path d="M0 0 C2 1 2 1 2 1 Z " fill="#FFFFFF" transform="translate(468,83)"/>
<path d="M0 0 C2 1 2 1 2 1 Z " fill="#FFFFFF" transform="translate(460,83)"/>
<path d="" fill="#DF2020" transform="translate(0,0)"/>
<path d="" fill="#FF4040" transform="translate(0,0)"/>
<path d="" fill="#FF4F4F" transform="translate(0,0)"/>
<path d="" fill="#FF5D44" transform="translate(0,0)"/>
<path d="" fill="#FF4444" transform="translate(0,0)"/>
<path d="" fill="#F16A1C" transform="translate(0,0)"/>
<path d="" fill="#FF7359" transform="translate(0,0)"/>
<path d="" fill="#D53939" transform="translate(0,0)"/>
<path d="M0 0 C2 1 2 1 2 1 Z " fill="#FF5D44" transform="translate(90,61)"/>
<path d="" fill="#FF4444" transform="translate(0,0)"/>
<path d="M0 0 C2 1 2 1 2 1 Z " fill="#D14A3C" transform="translate(88,60)"/>
<path d="M0 0 C2 1 2 1 2 1 Z " fill="#F34343" transform="translate(104,58)"/>
<path d="" fill="#FF6633" transform="translate(0,0)"/>
<path d="" fill="#FF4A4A" transform="translate(0,0)"/>
<path d="" fill="#EA4A35" transform="translate(0,0)"/>
<path d="" fill="#EA2A15" transform="translate(0,0)"/>
<path d="" fill="#CD4444" transform="translate(0,0)"/>
<path d="" fill="#BF4000" transform="translate(0,0)"/>
<path d="" fill="#F3563C" transform="translate(0,0)"/>
<path d="M0 0 C2 1 2 1 2 1 Z " fill="#DF4A4A" transform="translate(281,44)"/>
<path d="M0 0 C2 1 2 1 2 1 Z " fill="#FF5339" transform="translate(399,43)"/>
<path d="M0 0 C2 1 2 1 2 1 Z " fill="#FF5D44" transform="translate(356,42)"/>
<path d="M0 0 C2 1 2 1 2 1 Z " fill="#EA5555" transform="translate(311,42)"/>
<path d="M0 0 C2 1 2 1 2 1 Z " fill="#FF6A6A" transform="translate(284,42)"/>
<path d="M0 0 C2 1 2 1 2 1 Z " fill="#FF5339" transform="translate(98,42)"/>
<path d="M0 0 C2 1 2 1 2 1 Z " fill="#FF4A4A" transform="translate(375,41)"/>
<path d="M0 0 C2 1 2 1 2 1 Z " fill="#FF4040" transform="translate(358,41)"/>
<path d="M0 0 C2 1 2 1 2 1 Z " fill="#FF5151" transform="translate(254,32)"/>
<path d="M0 0 C2 1 2 1 2 1 Z " fill="#FF4A4A" transform="translate(64,29)"/>
<path d="M0 0 C2 1 2 1 2 1 Z " fill="#D0442F" transform="translate(62,28)"/>
<path d="M0 0 C2 1 2 1 2 1 Z " fill="#FF5040" transform="translate(260,17)"/>
<path d="M0 0 C2 1 2 1 2 1 Z " fill="#F15547" transform="translate(236,17)"/>
<path d="M0 0 C2 1 2 1 2 1 Z " fill="#FF6339" transform="translate(258,16)"/>
<path d="" fill="#FFFFFF" transform="translate(0,0)"/>
<path d="" fill="#FF0000" transform="translate(0,0)"/>
<path d="" fill="#FF0000" transform="translate(0,0)"/>
<path d="" fill="#FF0000" transform="translate(0,0)"/>
<path d="" fill="#800000" transform="translate(0,0)"/>
<path d="" fill="#FF0000" transform="translate(0,0)"/>
<path d="" fill="#FF0000" transform="translate(0,0)"/>
<path d="" fill="#FF0000" transform="translate(0,0)"/>
<path d="" fill="#FF0000" transform="translate(0,0)"/>
<path d="" fill="#FF0000" transform="translate(0,0)"/>
<path d="" fill="#FF0000" transform="translate(0,0)"/>
<path d="" fill="#FF0000" transform="translate(0,0)"/>
<path d="" fill="#FF0000" transform="translate(0,0)"/>
<path d="" fill="#FFFFFF" transform="translate(0,0)"/>
<path d="" fill="#FFFFFF" transform="translate(0,0)"/>
<path d="" fill="#FF4949" transform="translate(0,0)"/>
<path d="" fill="#DB4949" transform="translate(0,0)"/>
<path d="" fill="#FF4949" transform="translate(0,0)"/>
<path d="" fill="#FFFFFF" transform="translate(0,0)"/>
<path d="" fill="#FFFFFF" transform="translate(0,0)"/>
<path d="" fill="#FF6040" transform="translate(0,0)"/>
<path d="" fill="#FFFFFF" transform="translate(0,0)"/>
<path d="" fill="#FFFFFF" transform="translate(0,0)"/>
<path d="" fill="#DF4040" transform="translate(0,0)"/>
<path d="" fill="#D5552B" transform="translate(0,0)"/>
<path d="" fill="#000000" transform="translate(0,0)"/>
<path d="" fill="#D5552B" transform="translate(0,0)"/>
<path d="" fill="#DF4040" transform="translate(0,0)"/>
<path d="" fill="#FF5555" transform="translate(0,0)"/>
<path d="" fill="#FF4040" transform="translate(0,0)"/>
<path d="" fill="#FF5555" transform="translate(0,0)"/>
<path d="" fill="#DF4040" transform="translate(0,0)"/>
<path d="" fill="#FF5555" transform="translate(0,0)"/>
<path d="" fill="#FF5555" transform="translate(0,0)"/>
<path d="" fill="#D5552B" transform="translate(0,0)"/>
<path d="" fill="#FF4949" transform="translate(0,0)"/>
<path d="" fill="#FF8000" transform="translate(0,0)"/>
<path d="" fill="#FF4040" transform="translate(0,0)"/>
<path d="" fill="#FF6040" transform="translate(0,0)"/>
<path d="" fill="#FF4949" transform="translate(0,0)"/>
<path d="" fill="#FF6633" transform="translate(0,0)"/>
<path d="" fill="#DF4040" transform="translate(0,0)"/>
<path d="" fill="#FF6040" transform="translate(0,0)"/>
<path d="" fill="#FF5539" transform="translate(0,0)"/>
<path d="" fill="#FF8000" transform="translate(0,0)"/>
<path d="" fill="#FF0000" transform="translate(0,0)"/>
<path d="" fill="#FF5555" transform="translate(0,0)"/>
<path d="" fill="#FFFFFF" transform="translate(0,0)"/>
<path d="" fill="#FFFFFF" transform="translate(0,0)"/>
<path d="" fill="#D5552B" transform="translate(0,0)"/>
<path d="" fill="#EA5540" transform="translate(0,0)"/>
<path d="" fill="#FF5539" transform="translate(0,0)"/>
<path d="" fill="#E85D46" transform="translate(0,0)"/>
<path d="" fill="#E84646" transform="translate(0,0)"/>
<path d="" fill="#E64D4D" transform="translate(0,0)"/>
<path d="" fill="#FF6040" transform="translate(0,0)"/>
<path d="" fill="#FFFFFF" transform="translate(0,0)"/>
<path d="" fill="#E35539" transform="translate(0,0)"/>
<path d="" fill="#DF4040" transform="translate(0,0)"/>
<path d="" fill="#DF4040" transform="translate(0,0)"/>
<path d="" fill="#FF6040" transform="translate(0,0)"/>
<path d="" fill="#FF6040" transform="translate(0,0)"/>
<path d="" fill="#FF6040" transform="translate(0,0)"/>
<path d="" fill="#DF6040" transform="translate(0,0)"/>
<path d="" fill="#FF0000" transform="translate(0,0)"/>
<path d="" fill="#000000" transform="translate(0,0)"/>
<path d="" fill="#FF5555" transform="translate(0,0)"/>
<path d="" fill="#FF6633" transform="translate(0,0)"/>
<path d="" fill="#FF4D4D" transform="translate(0,0)"/>
<path d="" fill="#BF4040" transform="translate(0,0)"/>
<path d="" fill="#D5552B" transform="translate(0,0)"/>
<path d="" fill="#FF4949" transform="translate(0,0)"/>
<path d="" fill="#D5552B" transform="translate(0,0)"/>
<path d="" fill="#E64D4D" transform="translate(0,0)"/>
<path d="" fill="#E84646" transform="translate(0,0)"/>
<path d="" fill="#FF8080" transform="translate(0,0)"/>
<path d="" fill="#FF4D4D" transform="translate(0,0)"/>
<path d="" fill="#EA5540" transform="translate(0,0)"/>
<path d="" fill="#CC6633" transform="translate(0,0)"/>
<path d="" fill="#E64D4D" transform="translate(0,0)"/>
<path d="" fill="#E64D4D" transform="translate(0,0)"/>
<path d="" fill="#FF5D46" transform="translate(0,0)"/>
<path d="" fill="#E84646" transform="translate(0,0)"/>
<path d="" fill="#FF5555" transform="translate(0,0)"/>
<path d="" fill="#000000" transform="translate(0,0)"/>
<path d="" fill="#FF6040" transform="translate(0,0)"/>
<path d="" fill="#DB4949" transform="translate(0,0)"/>
<path d="" fill="#FF0000" transform="translate(0,0)"/>
<path d="" fill="#FF0000" transform="translate(0,0)"/>
<path d="" fill="#FF5555" transform="translate(0,0)"/>
<path d="" fill="#FF4949" transform="translate(0,0)"/>
<path d="" fill="#FF6633" transform="translate(0,0)"/>
<path d="" fill="#FF5555" transform="translate(0,0)"/>
<path d="" fill="#FF4949" transform="translate(0,0)"/>
<path d="" fill="#E35539" transform="translate(0,0)"/>
<path d="" fill="#FF5555" transform="translate(0,0)"/>
<path d="" fill="#FF4040" transform="translate(0,0)"/>
<path d="" fill="#D5552B" transform="translate(0,0)"/>
<path d="" fill="#E35539" transform="translate(0,0)"/>
<path d="" fill="#FF6633" transform="translate(0,0)"/>
<path d="" fill="#E35539" transform="translate(0,0)"/>
<path d="" fill="#FF8080" transform="translate(0,0)"/>
<path d="" fill="#FF6633" transform="translate(0,0)"/>
<path d="" fill="#DB4949" transform="translate(0,0)"/>
<path d="" fill="#E35539" transform="translate(0,0)"/>
<path d="" fill="#FF5555" transform="translate(0,0)"/>
<path d="" fill="#FF5555" transform="translate(0,0)"/>
<path d="" fill="#E35539" transform="translate(0,0)"/>
<path d="" fill="#DB4949" transform="translate(0,0)"/>
<path d="" fill="#FF4949" transform="translate(0,0)"/>
<path d="" fill="#E35539" transform="translate(0,0)"/>
<path d="" fill="#FF4040" transform="translate(0,0)"/>
<path d="" fill="#DB4949" transform="translate(0,0)"/>
<path d="" fill="#E35539" transform="translate(0,0)"/>
<path d="" fill="#FF4949" transform="translate(0,0)"/>
<path d="" fill="#DB4949" transform="translate(0,0)"/>
<path d="" fill="#FF6040" transform="translate(0,0)"/>
<path d="" fill="#FF5555" transform="translate(0,0)"/>
<path d="" fill="#FF4949" transform="translate(0,0)"/>
<path d="" fill="#FF6040" transform="translate(0,0)"/>
<path d="" fill="#FF6040" transform="translate(0,0)"/>
<path d="" fill="#FF4949" transform="translate(0,0)"/>
<path d="" fill="#FF5555" transform="translate(0,0)"/>
<path d="" fill="#FF6040" transform="translate(0,0)"/>
<path d="" fill="#FF4949" transform="translate(0,0)"/>
<path d="" fill="#FF4949" transform="translate(0,0)"/>
<path d="" fill="#FF4949" transform="translate(0,0)"/>
<path d="" fill="#FF4949" transform="translate(0,0)"/>
<path d="" fill="#FF4949" transform="translate(0,0)"/>
<path d="" fill="#FF4949" transform="translate(0,0)"/>
<path d="" fill="#FF4949" transform="translate(0,0)"/>
<path d="" fill="#FF0000" transform="translate(0,0)"/>
<path d="" fill="#FF0000" transform="translate(0,0)"/>
<path d="" fill="#FF8080" transform="translate(0,0)"/>
<path d="" fill="#FF6633" transform="translate(0,0)"/>
<path d="" fill="#FF5555" transform="translate(0,0)"/>
<path d="" fill="#FF6633" transform="translate(0,0)"/>
<path d="" fill="#DF4040" transform="translate(0,0)"/>
<path d="" fill="#FF6040" transform="translate(0,0)"/>
<path d="" fill="#E84646" transform="translate(0,0)"/>
<path d="" fill="#FF6633" transform="translate(0,0)"/>
<path d="" fill="#FF4949" transform="translate(0,0)"/>
<path d="" fill="#E64D33" transform="translate(0,0)"/>
<path d="" fill="#FF0000" transform="translate(0,0)"/>
<path d="" fill="#FF0000" transform="translate(0,0)"/>
<path d="" fill="#FF0000" transform="translate(0,0)"/>
<path d="" fill="#FF5555" transform="translate(0,0)"/>
<path d="" fill="#FF4040" transform="translate(0,0)"/>
<path d="" fill="#FF4040" transform="translate(0,0)"/>
<path d="" fill="#CC6633" transform="translate(0,0)"/>
<path d="" fill="#BF4040" transform="translate(0,0)"/>
<path d="" fill="#FF6633" transform="translate(0,0)"/>
<path d="" fill="#CC3333" transform="translate(0,0)"/>
<path d="" fill="#D55555" transform="translate(0,0)"/>
<path d="" fill="#FF6633" transform="translate(0,0)"/>
<path d="" fill="#FF5555" transform="translate(0,0)"/>
<path d="" fill="#FF6040" transform="translate(0,0)"/>
</svg>
