<?xml version="1.0" encoding="UTF-8"?>
<svg version="1.1" xmlns="http://www.w3.org/2000/svg" width="800" height="800">
<path d="M0 0 C264 0 528 0 800 0 C800 264 800 528 800 800 C536 800 272 800 0 800 C0 536 0 272 0 0 Z " fill="#000000" transform="translate(0,0)"/>
<path d="M0 0 C264 0 528 0 800 0 C800 74.58 800 149.16 800 226 C792.22495606 219.33567663 792.22495606 219.33567663 789.0625 216.0625 C785.20540684 212.16132578 781.16945302 208.56211862 777 205 C775.92285532 204.07068532 774.84606091 203.14096456 773.76953125 202.2109375 C734.23644555 168.11351424 690.6785292 137.19637301 642.83398438 115.83105469 C639.86294921 114.48475494 636.93796234 113.04175073 634 111.625 C589.00841113 90.47718838 539.81037793 75.65879066 490.61425781 68.39257812 C488.14157365 68.02125985 485.67658168 67.6183268 483.2109375 67.203125 C457.07909088 62.8835241 430.92532506 61.46222907 404.48875046 61.61347961 C402.26895584 61.62523051 400.04919488 61.63172109 397.82937622 61.63708496 C375.45231732 61.70021573 353.22898737 62.22504328 331 65 C329.7840918 65.14985352 328.56818359 65.29970703 327.31542969 65.45410156 C319.50951456 66.45019639 311.75271628 67.65410919 304 69 C302.95972656 69.17756836 301.91945313 69.35513672 300.84765625 69.53808594 C232.36064747 81.41114278 165.16416367 106.39728584 106 143 C105.12859375 143.53753906 104.2571875 144.07507813 103.359375 144.62890625 C100.55266796 146.38971774 97.77419645 148.18827987 95 150 C94.25476074 150.48597656 93.50952148 150.97195312 92.74169922 151.47265625 C77.23597072 161.61205436 62.38855458 172.33093168 48 184 C47.22914062 184.6084375 46.45828125 185.216875 45.6640625 185.84375 C30.60016223 197.73886866 16.22762005 210.48908653 2.828125 224.234375 C1 226 1 226 0 226 C0 151.42 0 76.84 0 0 Z " fill="#000000" transform="translate(0,0)"/>
<path d="M0 0 C2.88817954 0.00462537 5.77593718 -0.00229779 8.6640625 -0.02050781 C29.4873663 -0.1502807 49.90203115 0.91424222 70.59277344 3.31567383 C71.97647125 3.47623764 71.97647125 3.47623764 73.38812256 3.64004517 C78.24088251 4.21915713 83.07346988 4.89189603 87.90527344 5.62817383 C88.59482117 5.73138947 89.2843689 5.8346051 89.99481201 5.94094849 C104.0209895 8.05184985 117.80717142 10.97961006 131.59277344 14.31567383 C133.58743282 14.78238539 135.58222237 15.24854102 137.57714844 15.71411133 C179.08915466 25.56977638 220.8581683 40.21604744 258.59277344 60.31567383 C259.47320313 60.78054199 260.35363281 61.24541016 261.26074219 61.72436523 C280.28665659 71.79298582 298.66536456 82.59281724 316.59277344 94.50317383 C317.15404938 94.87517914 317.71532532 95.24718445 318.29360962 95.63046265 C326.27417473 100.93212803 333.98765359 106.49102856 341.59277344 112.31567383 C342.5958252 113.0810144 342.5958252 113.0810144 343.61914062 113.86181641 C350.78238601 119.36063667 357.73553583 125.06672002 364.55761719 130.98168945 C367.9717326 133.94033431 371.4335943 136.81245263 374.96777344 139.62817383 C379.79065078 143.54810534 384.36150803 147.70428384 388.90527344 151.94067383 C389.91050049 152.87327026 389.91050049 152.87327026 390.93603516 153.82470703 C391.90500732 154.73675903 391.90500732 154.73675903 392.89355469 155.66723633 C393.74687378 156.46895264 393.74687378 156.46895264 394.61743164 157.28686523 C397.42445481 160.16986641 400.00046889 163.2398859 402.59277344 166.31567383 C369.55688477 199.3515625 369.55688477 199.3515625 367.46401978 201.44223022 C366.32542069 202.58216628 365.18917605 203.72446889 364.05722046 204.8710022 C361.95361928 206.99931298 359.85618769 208.91696831 357.53027344 210.81567383 C354.80419613 213.13573962 352.72044434 215.45150146 350.59277344 218.31567383 C347.75426748 217.00797785 345.54515134 215.58307037 343.21777344 213.50317383 C342.52554688 212.88571289 341.83332031 212.26825195 341.12011719 211.63208008 C339.18508255 209.85854756 337.2620441 208.07509824 335.34667969 206.28051758 C329.14182679 200.46713261 322.92204658 194.79044451 316.27636719 189.47583008 C313.47994705 187.22485433 310.759221 184.89781968 308.03027344 182.56567383 C288.78518452 166.53634527 267.40573673 152.57575507 245.59277344 140.31567383 C244.7779248 139.85483398 243.96307617 139.39399414 243.12353516 138.91918945 C219.907341 125.84234837 196.12943102 114.87557789 171.16357422 105.6394043 C168.02767399 104.47689568 164.90176058 103.29116867 161.77636719 102.10083008 C90.96629943 75.71734805 8.9071658 69.27926098 -65.40722656 80.31567383 C-66.5609375 80.48647461 -67.71464844 80.65727539 -68.90332031 80.83325195 C-75.43919051 81.83364025 -81.92637519 83.00832743 -88.40722656 84.31567383 C-89.19403809 84.47003906 -89.98084961 84.6244043 -90.79150391 84.78344727 C-96.34946994 85.8776899 -101.88055906 87.07374969 -107.40722656 88.31567383 C-108.34759766 88.52417969 -109.28796875 88.73268555 -110.25683594 88.94750977 C-126.28348032 92.5303644 -141.8801644 96.97095525 -157.40722656 102.31567383 C-158.46071289 102.67612793 -159.51419922 103.03658203 -160.59960938 103.40795898 C-187.94579063 112.870119 -214.3392527 124.86258268 -239.40722656 139.31567383 C-240.9019578 140.16343663 -242.39674765 141.0110961 -243.89160156 141.85864258 C-264.09393527 153.4266795 -283.09411596 166.97436773 -301.40722656 181.31567383 C-302.64859375 182.28053711 -302.64859375 182.28053711 -303.91503906 183.26489258 C-317.77258512 194.17256497 -330.65985842 206.14719668 -343.40722656 218.31567383 C-347.25555726 216.7478354 -349.52882678 214.26198284 -352.40722656 211.31567383 C-353.16940994 210.55349045 -353.93159332 209.79130707 -354.71687317 209.00602722 C-368.94699097 194.77590942 -383.17710876 180.54579163 -397.40722656 166.31567383 C-396.47407535 165.21629891 -395.53935573 164.11825519 -394.60400391 163.02075195 C-394.0836557 162.40913208 -393.5633075 161.79751221 -393.02719116 161.1673584 C-390.48406084 158.26045835 -387.77418549 155.5338538 -385.03222656 152.81567383 C-384.45988281 152.24671387 -383.88753906 151.67775391 -383.29785156 151.09155273 C-379.14214992 146.98638706 -374.88475577 143.0686574 -370.40722656 139.31567383 C-369.40949219 138.46360352 -368.41175781 137.6115332 -367.38378906 136.73364258 C-346.85810541 119.21823069 -325.40985025 102.47377157 -302.40722656 88.31567383 C-301.51132812 87.75235352 -300.61542969 87.1890332 -299.69238281 86.60864258 C-296.28231589 84.4801514 -292.84939097 82.39163475 -289.40722656 80.31567383 C-288.59157227 79.82180176 -287.77591797 79.32792969 -286.93554688 78.8190918 C-221.49900768 39.37546566 -148.86727749 15.03263211 -73.40722656 4.31567383 C-72.23659668 4.14471191 -71.0659668 3.97375 -69.85986328 3.79760742 C-46.66923306 0.63342817 -23.37002373 -0.04043875 0 0 Z " fill="#2488FD" transform="translate(397.4072265625,60.684326171875)"/>
<path d="M0 0 C3.62878309 -0.00217771 7.25725709 -0.02036216 10.88598633 -0.03930664 C24.91730331 -0.07366602 38.66825056 0.51032561 52.59887695 2.18530273 C53.88834229 2.33136963 55.17780762 2.47743652 56.50634766 2.62792969 C107.86484469 8.67781958 154.64002401 24.95195995 200.59887695 48.18530273 C201.75371582 48.76513916 201.75371582 48.76513916 202.93188477 49.35668945 C213.01743556 54.4936297 222.36637388 60.87721008 231.78637695 67.12280273 C232.74083206 67.75427216 232.74083206 67.75427216 233.71456909 68.39849854 C253.99058277 81.85297877 274.01580395 97.05116286 290.9777832 114.56030273 C293.04118054 116.62867211 295.26332883 118.43364164 297.59887695 120.18530273 C296.02944012 123.968315 293.66786418 126.35786821 290.78198242 129.22924805 C290.29401184 129.71751068 289.80604126 130.20577332 289.30328369 130.70883179 C287.6955742 132.31515235 286.08090595 133.91427986 284.46606445 135.51342773 C283.34747461 136.6282859 282.22932666 137.74358761 281.11160278 138.85931396 C278.17328371 141.79000882 275.22900741 144.71464695 272.28344727 147.63806152 C269.27689433 150.62412999 266.27601814 153.61589132 263.2746582 156.60717773 C257.3882701 162.47213729 251.49557595 168.33071005 245.59887695 174.18530273 C242.20951931 172.58784693 240.11883111 170.85972144 237.53637695 168.12280273 C232.55463203 163.02690981 227.15774949 158.63084366 221.59887695 154.18530273 C220.78161133 153.50081055 219.9643457 152.81631836 219.12231445 152.11108398 C203.0066048 138.61480082 185.96168857 127.39460786 167.59887695 117.18530273 C166.7795166 116.72140137 165.96015625 116.2575 165.1159668 115.77954102 C116.5627256 88.35775048 59.57946605 75.66200803 4.09887695 75.87280273 C3.09652008 75.87462555 2.09416321 75.87644836 1.06143188 75.87832642 C-85.85321594 76.14333905 -170.44948263 110.6407869 -232.22924805 171.99389648 C-232.9459668 172.71706055 -233.66268555 173.44022461 -234.40112305 174.18530273 C-238.18413531 172.6158659 -240.57368852 170.25428996 -243.44506836 167.3684082 C-243.93333099 166.88043762 -244.42159363 166.39246704 -244.9246521 165.88970947 C-246.53097266 164.28199998 -248.13010018 162.66733173 -249.72924805 161.05249023 C-250.84410621 159.93390039 -251.95940792 158.81575244 -253.07513428 157.69802856 C-256.00582913 154.75970949 -258.93046726 151.81543319 -261.85388184 148.86987305 C-264.8399503 145.86332011 -267.83171164 142.86244392 -270.82299805 139.86108398 C-276.68795761 133.97469588 -282.54653037 128.08200174 -288.40112305 122.18530273 C-284.38389606 113.61002479 -275.55704281 107.21066426 -268.40112305 101.18530273 C-267.50780273 100.42604492 -266.61448242 99.66678711 -265.6940918 98.88452148 C-242.68515187 79.49428771 -217.95573781 62.59361694 -191.47094727 48.30834961 C-189.55379758 47.26814101 -187.64992238 46.20752765 -185.7487793 45.13842773 C-172.00617582 37.49248083 -157.29150115 30.58179346 -142.1940918 26.09936523 C-139.67608325 25.27528971 -137.27647672 24.33141842 -134.8269043 23.32592773 C-104.22599913 10.96781545 -70.19643195 4.29121358 -37.40112305 1.18530273 C-36.10331909 1.05393921 -36.10331909 1.05393921 -34.77929688 0.91992188 C-23.20571376 -0.08635957 -11.60871073 -0.00077749 0 0 Z " fill="#2488FD" transform="translate(395.401123046875,211.814697265625)"/>
<path d="M0 0 C0.886875 0.680625 1.77375 1.36125 2.6875 2.0625 C5.29913304 4.25062498 7.64441999 6.53485813 10 9 C10.87978516 9.90492188 10.87978516 9.90492188 11.77734375 10.828125 C17.8348527 17.30546131 22.40392354 24.46066689 27 32 C27.72703125 33.13888672 27.72703125 33.13888672 28.46875 34.30078125 C42.05236104 56.72244692 44.69815036 87.12036715 38.90698242 112.23852539 C34.08644266 131.00975166 25.75372577 147.37759646 13 162 C12.46117187 162.68320312 11.92234375 163.36640625 11.3671875 164.0703125 C-4.65060215 183.9516896 -32.6927383 196.88170356 -57.66113281 199.79272461 C-91.3098861 202.77474878 -119.73739469 194.12746741 -146 173.375 C-150.49145748 169.58678402 -154.31912268 165.56669593 -158 161 C-158.63421875 160.26394531 -159.2684375 159.52789063 -159.921875 158.76953125 C-173.11391334 143.09759423 -179.99580668 124.85669199 -184 105 C-184.19335938 104.08734375 -184.38671875 103.1746875 -184.5859375 102.234375 C-188.66711079 70.35502141 -179.43779437 40.93398423 -160.0625 15.75 C-119.29080651 -33.27215406 -49.62633777 -38.83800348 0 0 Z " fill="#2488FE" transform="translate(472,539)"/>
<path d="M0 0 C3.09549599 0.0107119 6.1904103 0.00005236 9.28588867 -0.01269531 C20.58933123 -0.02100388 31.49719892 0.47883909 42.66674805 2.26074219 C43.61976807 2.40141113 44.57278809 2.54208008 45.5546875 2.68701172 C95.85044812 10.36108172 156.80639514 34.37799145 189.5300293 75.60839844 C190.09270508 76.42630859 190.09270508 76.42630859 190.66674805 77.26074219 C189.60662098 78.49195604 188.543508 79.72059904 187.47924805 80.94824219 C186.59172852 81.97498047 186.59172852 81.97498047 185.6862793 83.02246094 C183.42956889 85.52361193 181.05351518 87.88535814 178.66674805 90.26074219 C177.25327757 91.67360628 175.84014482 93.08680829 174.42724609 94.50024414 C162.50708008 106.42041016 150.58691406 118.34057617 138.66674805 130.26074219 C138.19918594 129.85825256 137.73162384 129.45576294 137.24989319 129.04107666 C136.62956711 128.50802917 136.00924103 127.97498169 135.37011719 127.42578125 C134.75818008 126.89954163 134.14624298 126.373302 133.51576233 125.83111572 C128.37465626 121.46475847 123.0132971 117.37040303 117.66674805 113.26074219 C117.11631836 112.83212891 116.56588867 112.40351563 115.9987793 111.96191406 C97.41066738 97.58200666 75.77301863 88.04146445 53.16674805 82.01074219 C52.29034668 81.77637451 51.41394531 81.54200684 50.51098633 81.30053711 C35.30366175 77.45105359 20.39789861 75.67383702 4.72924805 75.76074219 C3.88801392 75.76217224 3.04677979 75.76360229 2.18005371 75.76507568 C-13.08862841 75.82884832 -27.50693203 77.40197657 -42.33325195 81.26074219 C-43.21835449 81.49067871 -44.10345703 81.72061523 -45.01538086 81.95751953 C-77.01952277 90.59588677 -104.22280776 107.89211716 -128.33325195 130.26074219 C-134.41123211 125.22299679 -139.98817395 119.76703568 -145.5715332 114.19042969 C-146.54315729 113.22202566 -147.51485354 112.25369403 -148.48661804 111.28543091 C-150.50961236 109.26838551 -152.53056909 107.2493238 -154.55029297 105.22900391 C-157.13538065 102.64381402 -159.7273172 100.06560852 -162.32101154 97.48905754 C-164.32415324 95.49703403 -166.32273383 93.50048243 -168.32005882 91.50262833 C-169.73623085 90.0882039 -171.15693741 88.67832429 -172.57771301 87.26852417 C-173.4358812 86.40727936 -174.29404938 85.54603455 -175.17822266 84.65869141 C-175.93432327 83.90401581 -176.69042389 83.14934021 -177.46943665 82.37179565 C-179.21312676 80.39680219 -180.29993346 78.66865945 -181.33325195 76.26074219 C-142.9813762 36.0123451 -89.85514791 10.9474278 -35.33325195 2.26074219 C-34.29515381 2.08124023 -33.25705566 1.90173828 -32.1875 1.71679688 C-21.4548102 0.04146469 -10.84222856 -0.04455828 0 0 Z " fill="#2488FC" transform="translate(395.333251953125,362.7392578125)"/>
<path d="M0 0 C31.68384665 -0.78663343 58.6271114 6.14295675 84 26 C84.886875 26.680625 85.77375 27.36125 86.6875 28.0625 C89.29913304 30.25062498 91.64441999 32.53485813 94 35 C94.58652344 35.60328125 95.17304688 36.2065625 95.77734375 36.828125 C101.8348527 43.30546131 106.40392354 50.46066689 111 58 C111.4846875 58.75925781 111.969375 59.51851562 112.46875 60.30078125 C126.05236104 82.72244692 128.69815036 113.12036715 122.90698242 138.23852539 C118.08644266 157.00975166 109.75372577 173.37759646 97 188 C96.46117187 188.68320312 95.92234375 189.36640625 95.3671875 190.0703125 C79.53166228 209.72546189 52.49950691 221.97241084 28 225.6875 C22.68185451 226.10298012 17.33435049 226 12 226 C12 151.75 12 77.5 12 1 C8.04 1 4.08 1 0 1 C0 0.67 0 0.34 0 0 Z " fill="#005DCE" transform="translate(388,513)"/>
<path d="M0 0 C1.40823784 0.0339814 1.40823784 0.0339814 2.84492493 0.06864929 C4.82098533 0.11843434 6.79692192 0.17336998 8.77270508 0.2331543 C11.80075125 0.32421785 14.82886632 0.39878751 17.85742188 0.47070312 C19.77997346 0.52117149 21.70250087 0.5725715 23.625 0.625 C24.53126633 0.6479866 25.43753265 0.67097321 26.3712616 0.69465637 C27.21256119 0.72105698 28.05386078 0.74745758 28.9206543 0.7746582 C30.02935127 0.80702324 30.02935127 0.80702324 31.16044617 0.84004211 C33.11328125 1.01171875 33.11328125 1.01171875 36.11328125 2.01171875 C38.84617418 2.23969437 41.56370329 2.42840062 44.30078125 2.57421875 C45.05037109 2.61740234 45.79996094 2.66058594 46.57226562 2.70507812 C48.419065 2.8109456 50.26614959 2.91181635 52.11328125 3.01171875 C52.11328125 3.67171875 52.11328125 4.33171875 52.11328125 5.01171875 C50.3489978 4.90561279 50.3489978 4.90561279 48.54907227 4.79736328 C36.35741676 4.10366242 24.20514017 3.85495586 11.99487305 3.88134766 C9.04926426 3.88672152 6.10380744 3.88135302 3.15820312 3.875 C-8.88832461 3.87123558 -20.86489198 4.242448 -32.88671875 5.01171875 C-32.55671875 4.35171875 -32.22671875 3.69171875 -31.88671875 3.01171875 C-29.30061029 2.74923023 -26.79205443 2.58980238 -24.19921875 2.51171875 C-22.77837116 2.46776168 -21.35774683 2.41579318 -19.9375 2.35546875 C-19.30497314 2.33677734 -18.67244629 2.31808594 -18.02075195 2.29882812 C-15.75456696 2.07854069 -15.75456696 2.07854069 -13.25146484 0.9909668 C-8.74779771 -0.31974347 -4.65861335 -0.15038545 0 0 Z " fill="#3381DD" transform="translate(389.88671875,283.98828125)"/>
<path d="M0 0 C1.52478973 -0.00350464 1.52478973 -0.00350464 3.0803833 -0.00708008 C19.59488075 -0.02139666 35.70883222 0.80280747 52.0625 3.25 C52.0625 3.58 52.0625 3.91 52.0625 4.25 C49.27076945 4.27690104 46.47929652 4.29679053 43.6875 4.3125 C42.49640625 4.32506836 42.49640625 4.32506836 41.28125 4.33789062 C35.2890625 4.36328125 35.2890625 4.36328125 33.0625 3.25 C30.96963839 3.12941945 28.87300222 3.07257322 26.77685547 3.04467773 C26.13282776 3.03477814 25.48880005 3.02487854 24.82525635 3.01467896 C22.69343765 2.98305501 20.56159665 2.95830313 18.4296875 2.93359375 C16.95280371 2.91302498 15.47592582 2.89202853 13.99905396 2.87062073 C10.10944389 2.81539201 6.21978063 2.7659863 2.33007812 2.71777344 C-1.63806907 2.66756423 -5.60613889 2.61187514 -9.57421875 2.55664062 C-17.36191367 2.44904928 -25.14967286 2.34760652 -32.9375 2.25 C-32.9375 1.92 -32.9375 1.59 -32.9375 1.25 C-22.01144887 -0.1530766 -10.99460104 0.01147362 0 0 Z " fill="#021032" transform="translate(397.9375,286.75)"/>
<path d="M0 0 C1.1105928 -0.00262848 1.1105928 -0.00262848 2.24362183 -0.00531006 C4.67904028 -0.00969445 7.11438556 -0.00680384 9.54980469 -0.00341797 C11.2442018 -0.0040917 12.93859882 -0.00506231 14.63299561 -0.00631714 C18.17688928 -0.00778924 21.7207577 -0.00565415 25.26464844 -0.00097656 C29.81681945 0.00473789 34.36893173 0.00142783 38.92110062 -0.00454903 C42.41595914 -0.00815295 45.9108036 -0.00701714 49.40566254 -0.00442123 C51.08507036 -0.0037524 52.76447945 -0.00457888 54.4438858 -0.00690079 C56.78293779 -0.00942643 59.12189278 -0.00558881 61.4609375 0 C62.16014313 -0.00202423 62.85934875 -0.00404846 63.57974243 -0.00613403 C68.35741323 0.01512807 68.35741323 0.01512807 69.47167969 1.12939453 C72.652874 1.33220975 75.82637195 1.47624354 79.01269531 1.55908203 C81.03027344 1.65283203 81.03027344 1.65283203 84.47167969 2.12939453 C85.46167969 3.61439453 85.46167969 3.61439453 86.47167969 5.12939453 C84.78365234 4.93023437 84.78365234 4.93023437 83.06152344 4.72705078 C81.5107637 4.54847845 79.95998117 4.37010399 78.40917969 4.19189453 C77.30993164 4.06137695 77.30993164 4.06137695 76.18847656 3.92822266 C63.31744191 2.46190225 50.51429479 1.98181376 37.56933594 2.03173828 C36.11103871 2.03361031 34.65274084 2.03503049 33.19444275 2.036026 C29.41181611 2.03978952 25.62922972 2.04956471 21.84661865 2.06072998 C17.96448307 2.07107906 14.0823408 2.07555211 10.20019531 2.08056641 C2.62400536 2.09119453 -4.95215177 2.10819378 -12.52832031 2.12939453 C-12.52832031 1.79939453 -12.52832031 1.46939453 -12.52832031 1.12939453 C-8.33718041 0.11353059 -4.28753187 -0.01255802 0 0 Z " fill="#041942" transform="translate(373.5283203125,210.87060546875)"/>
<path d="M0 0 C8.29944634 5.64362351 15.02178714 12.84537165 22 20 C20.35 21.98 18.7 23.96 17 26 C16.34 24.68 15.68 23.36 15 22 C16.32 22 17.64 22 19 22 C19 21.01 19 20.02 19 19 C18.2575 19.350625 17.515 19.70125 16.75 20.0625 C13.8677274 21.04509293 12.78823655 21.0326802 10 20 C10 19.34 10 18.68 10 18 C8.54166642 16.37485532 8.54166642 16.37485532 7 15 C7.66 15 8.32 15 9 15 C9.33 14.34 9.66 13.68 10 13 C8.15794162 10.45620509 6.27521866 8.16687491 4 6 C4 6.66 4 7.32 4 8 C2.68 7.67 1.36 7.34 0 7 C0 4.69 0 2.38 0 0 Z " fill="#2587F3" transform="translate(778,206)"/>
<path d="M0 0 C0.97755753 0.00045822 1.95511505 0.00091644 2.96229553 0.00138855 C5.00848622 0.00438659 7.05467513 0.01219842 9.10083008 0.0246582 C12.23852561 0.04306183 15.37592766 0.0451665 18.51367188 0.04492188 C20.50911714 0.04983265 22.50456042 0.05565904 24.5 0.0625 C25.9061985 0.06416924 25.9061985 0.06416924 27.34080505 0.06587219 C28.20923538 0.07225204 29.07766571 0.0786319 29.97241211 0.08520508 C30.73500839 0.08901688 31.49760468 0.09282867 32.28330994 0.09675598 C34.28515625 0.23046875 34.28515625 0.23046875 37.28515625 1.23046875 C37.28515625 1.89046875 37.28515625 2.55046875 37.28515625 3.23046875 C18.14515625 3.23046875 -0.99484375 3.23046875 -20.71484375 3.23046875 C-20.71484375 2.90046875 -20.71484375 2.57046875 -20.71484375 2.23046875 C-13.72814819 0.57370942 -7.16879045 -0.05579084 0 0 Z " fill="#011232" transform="translate(388.71484375,360.76953125)"/>
<path d="M0 0 C0.66 0.33 1.32 0.66 2 1 C0.79618552 3.49361571 -0.45428722 5.68143083 -2 8 C-2.825 8.268125 -3.65 8.53625 -4.5 8.8125 C-5.325 9.204375 -6.15 9.59625 -7 10 C-7.28875 10.9075 -7.5775 11.815 -7.875 12.75 C-9.23917599 16.69095285 -10.94307754 17.83602398 -14.1171875 20.359375 C-18.32850014 24.02898353 -21.9375988 28.44092398 -23 34 C-23.99 34 -24.98 34 -26 34 C-21.30845782 20.711391 -9.87716296 9.62390237 0 0 Z " fill="#2C7EDD" transform="translate(326,540)"/>
<path d="M0 0 C0.33 0.66 0.66 1.32 1 2 C0.67 2.99 0.34 3.98 0 5 C-1.2065625 5.4640625 -1.2065625 5.4640625 -2.4375 5.9375 C-5.52921144 7.21942913 -5.63533604 8.08871689 -7 11 C-9.125 12.25 -9.125 12.25 -11 13 C-10.34 15.31 -9.68 17.62 -9 20 C-9.66 20.33 -10.32 20.66 -11 21 C-11.33 21.66 -11.66 22.32 -12 23 C-13.65 21.02 -15.3 19.04 -17 17 C-11.90499173 10.6656654 -6.07469335 5.37210426 0 0 Z " fill="#2B82E9" transform="translate(231,423)"/>
<path d="M0 0 C7.80793508 11.71190261 6.88143709 34.59654883 4.48730469 47.83496094 C4.32649414 48.54942383 4.16568359 49.26388672 4 50 C3.67 50 3.34 50 3 50 C3 38.12 3 26.24 3 14 C2.34 14 1.68 14 1 14 C0.67 9.38 0.34 4.76 0 0 Z " fill="#1154A5" transform="translate(508,594)"/>
<path d="M0 0 C2.64 0 5.28 0 8 0 C8 0.66 8 1.32 8 2 C8.78375 1.79375 9.5675 1.5875 10.375 1.375 C11.674375 1.189375 11.674375 1.189375 13 1 C13.66 1.66 14.32 2.32 15 3 C23.51722903 5.85150119 33.11009708 5.60810173 42 6 C42 6.66 42 7.32 42 8 C27.72449786 9.09624163 13.41756077 5.78559668 0 1 C0 0.67 0 0.34 0 0 Z " fill="#307FDB" transform="translate(358,731)"/>
<path d="M0 0 C5.25174926 4.38442526 10.13222473 9.00842093 14.9375 13.875 C15.62134766 14.56335938 16.30519531 15.25171875 17.00976562 15.9609375 C18.67551464 17.63833511 20.3388622 19.31803791 22 21 C19 21 19 21 17 20 C17 19.34 17 18.68 17 18 C16.4225 17.773125 15.845 17.54625 15.25 17.3125 C13 16 13 16 11.3125 13.5 C7.92913455 9.84230763 4.85882496 9.78598639 0 9 C0 6.03 0 3.06 0 0 Z " fill="#03030E" transform="translate(0,227)"/>
<path d="M0 0 C2.31 0.33 4.62 0.66 7 1 C-2.79531712 7.53021141 -16.67055222 7.16994172 -28 7 C-28 6.34 -28 5.68 -28 5 C-26.19402344 4.90912109 -26.19402344 4.90912109 -24.3515625 4.81640625 C-22.77602923 4.73200268 -21.20050904 4.64735459 -19.625 4.5625 C-18.8309375 4.52318359 -18.036875 4.48386719 -17.21875 4.44335938 C-12.97398779 4.31106596 -12.97398779 4.31106596 -9 3 C-6.3276379 2.86584528 -3.67749512 2.95681459 -1 3 C-0.67 2.01 -0.34 1.02 0 0 Z " fill="#0D59B2" transform="translate(428,732)"/>
<path d="M0 0 C2.97922593 -0.02683987 5.95821295 -0.04676037 8.9375 -0.0625 C9.78763672 -0.07087891 10.63777344 -0.07925781 11.51367188 -0.08789062 C12.32255859 -0.09111328 13.13144531 -0.09433594 13.96484375 -0.09765625 C14.7137085 -0.10289307 15.46257324 -0.10812988 16.23413086 -0.11352539 C18 0 18 0 19 1 C22.18119432 1.20281522 25.35469227 1.34684901 28.54101562 1.4296875 C30.55859375 1.5234375 30.55859375 1.5234375 34 2 C34.66 2.99 35.32 3.98 36 5 C34.31197266 4.80083984 34.31197266 4.80083984 32.58984375 4.59765625 C31.03916308 4.41839858 29.48837344 4.24008212 27.9375 4.0625 C27.12853271 3.9696875 26.31956543 3.876875 25.48608398 3.78125 C18.97562006 3.05722778 12.48469751 2.62609266 5.94140625 2.34375 C3 2 3 2 0 0 Z " fill="#01102D" transform="translate(424,211)"/>
<path d="M0 0 C-1.32 0.33 -2.64 0.66 -4 1 C-4 1.66 -4 2.32 -4 3 C-4.73605469 3.18175781 -5.47210938 3.36351562 -6.23046875 3.55078125 C-11.31048038 4.85937077 -15.57731645 6.09761392 -20 9 C-20.99 9 -21.98 9 -23 9 C-23 9.66 -23 10.32 -23 11 C-24.98 11 -26.96 11 -29 11 C-24.56756271 7.4576206 -19.68028947 5.47815707 -14.5 3.25 C-13.54996094 2.82589844 -12.59992188 2.40179688 -11.62109375 1.96484375 C-10.70457031 1.56910156 -9.78804688 1.17335938 -8.84375 0.765625 C-8.01037109 0.40243164 -7.17699219 0.03923828 -6.31835938 -0.33496094 C-3.75614827 -1.06995073 -2.47647036 -0.8905604 0 0 Z " fill="#010D29" transform="translate(343,448)"/>
<path d="M0 0 C0 4.32249566 -2.14915074 5.88395546 -5 9 C-5.99 9.66 -6.98 10.32 -8 11 C-9.01866229 12.65532623 -10.01810813 14.32260138 -11 16 C-12.3125 17.8125 -12.3125 17.8125 -14 19 C-17.1875 19.1875 -17.1875 19.1875 -20 19 C-20 17.35 -20 15.7 -20 14 C-18.02 14.99 -18.02 14.99 -16 16 C-10.72 10.72 -5.44 5.44 0 0 Z " fill="#00081D" transform="translate(550,476)"/>
<path d="M0 0 C5.99500997 4.96194855 11.46427037 10.3476624 16.9375 15.875 C17.81212891 16.75414062 18.68675781 17.63328125 19.58789062 18.5390625 C21.72757048 20.6904346 23.86486597 22.84411792 26 25 C25.34 25.33 24.68 25.66 24 26 C20.69435639 23.40270859 17.79590083 20.87557437 15.125 17.625 C12.89493155 14.92544345 10.5407673 12.64583882 7.875 10.375 C4.86458066 7.80864635 2.25308335 5.28574655 0 2 C0 1.34 0 0.68 0 0 Z " fill="#000822" transform="translate(233,460)"/>
<path d="M0 0 C3.80635497 3.20760251 7.54563567 6.40746109 11 10 C14.43595166 8.47291037 17.11912454 6.40072955 20 4 C20.33 4.99 20.66 5.98 21 7 C19.05691522 10.45437295 16.61426002 12.4132517 13 14 C9.07947964 13.04957082 7.39974137 10.05421629 5 7 C4.0925 6.29875 3.185 5.5975 2.25 4.875 C1.13625 3.946875 1.13625 3.946875 0 3 C0 2.01 0 1.02 0 0 Z " fill="#00061D" transform="translate(148,375)"/>
<path d="M0 0 C0.66 0.33 1.32 0.66 2 1 C1.360625 1.4125 0.72125 1.825 0.0625 2.25 C-2.20990931 4.17810487 -2.60196439 5.11424181 -3 8 C-3.515625 8.103125 -4.03125 8.20625 -4.5625 8.3125 C-7.86789172 9.24478997 -10.89628829 10.53598504 -14 12 C-14.33 12.66 -14.66 13.32 -15 14 C-15.99 14 -16.98 14 -18 14 C-18.33 14.99 -18.66 15.98 -19 17 C-20.32 16.67 -21.64 16.34 -23 16 C-20.29260806 14.08200091 -17.58391629 12.1658454 -14.875 10.25 C-14.11445313 9.71117187 -13.35390625 9.17234375 -12.5703125 8.6171875 C-8.41883581 5.68252294 -4.24681815 2.79503047 0 0 Z " fill="#2B7FDE" transform="translate(175,277)"/>
<path d="M0 0 C1.98 0.66 3.96 1.32 6 2 C5.09827532 3.17825358 4.17798498 4.34231577 3.25 5.5 C2.73953125 6.1496875 2.2290625 6.799375 1.703125 7.46875 C0 9 0 9 -4 9 C-5.703125 7.46875 -5.703125 7.46875 -7.25 5.5 C-7.77078125 4.8503125 -8.2915625 4.200625 -8.828125 3.53125 C-9.21484375 3.0259375 -9.6015625 2.520625 -10 2 C-7.525 2.495 -7.525 2.495 -5 3 C-4.67 4.32 -4.34 5.64 -4 7 C-3.34 6.67 -2.68 6.34 -2 6 C-2 5.01 -2 4.02 -2 3 C-1.34 2.01 -0.68 1.02 0 0 Z " fill="#2E7EDB" transform="translate(162,376)"/>
<path d="M0 0 C0 0.33 0 0.66 0 1 C-1.0669812 1.17390259 -1.0669812 1.17390259 -2.15551758 1.35131836 C-5.37493367 1.8775008 -8.59371761 2.40745549 -11.8125 2.9375 C-12.93205078 3.11990234 -14.05160156 3.30230469 -15.20507812 3.49023438 C-16.27822266 3.66748047 -17.35136719 3.84472656 -18.45703125 4.02734375 C-19.9416687 4.27085571 -19.9416687 4.27085571 -21.45629883 4.51928711 C-24.10856614 4.96143193 -24.10856614 4.96143193 -27 6 C-28.56118428 6.06740865 -30.1250252 6.08514456 -31.6875 6.0625 C-32.89986328 6.04896484 -32.89986328 6.04896484 -34.13671875 6.03515625 C-35.05904297 6.01775391 -35.05904297 6.01775391 -36 6 C-32.86784721 3.91189814 -31.17216625 3.51480524 -27.51953125 2.9296875 C-26.43736328 2.75566406 -25.35519531 2.58164062 -24.24023438 2.40234375 C-23.10908203 2.22832031 -21.97792969 2.05429687 -20.8125 1.875 C-19.70068359 1.69324219 -18.58886719 1.51148438 -17.44335938 1.32421875 C-11.55497193 0.39685874 -5.95986381 -0.21831003 0 0 Z " fill="#051B3F" transform="translate(364,289)"/>
<path d="M0 0 C6.32532275 4.39497902 11.67248457 9.45050476 17 15 C16.34 15.66 15.68 16.32 15 17 C14.67 16.34 14.34 15.68 14 15 C13.34 15 12.68 15 12 15 C11.34 15.66 10.68 16.32 10 17 C10 16.34 10 15.68 10 15 C9.34 15 8.68 15 8 15 C8.33 13.02 8.66 11.04 9 9 C8.34 9 7.68 9 7 9 C5.33333333 7.33333333 3.66666667 5.66666667 2 4 C1.34 4 0.68 4 0 4 C0 2.68 0 1.36 0 0 Z " fill="#2E82E4" transform="translate(569,424)"/>
<path d="M0 0 C1.98 0 3.96 0 6 0 C6 0.66 6 1.32 6 2 C6.7425 2.144375 7.485 2.28875 8.25 2.4375 C10.52027739 2.90187492 12.75759479 3.41863569 15 4 C15 4.66 15 5.32 15 6 C16.65 5.67 18.3 5.34 20 5 C20 5.99 20 6.98 20 8 C20.78375 8.103125 21.5675 8.20625 22.375 8.3125 C25 9 25 9 27 12 C21.19115863 10.22018665 15.69062546 7.78827933 10.125 5.375 C9.15046875 4.95476562 8.1759375 4.53453125 7.171875 4.1015625 C4.78029314 3.06989974 2.38971101 2.03598716 0 1 C0 0.67 0 0.34 0 0 Z " fill="#3075D1" transform="translate(527,311)"/>
<path d="M0 0 C2.475 0.495 2.475 0.495 5 1 C5.33 1.99 5.66 2.98 6 4 C6.99 4.33 7.98 4.66 9 5 C9.6875 7.0625 9.6875 7.0625 10 9 C10.99 9 11.98 9 13 9 C13.33 10.32 13.66 11.64 14 13 C14.99 13 15.98 13 17 13 C17.33 14.65 17.66 16.3 18 18 C13.46334263 14.2698595 9.22058878 10.32946434 5.0625 6.1875 C4.31746216 5.44922974 4.31746216 5.44922974 3.55737305 4.69604492 C0 1.12375366 0 1.12375366 0 0 Z " fill="#3179D3" transform="translate(126,352)"/>
<path d="M0 0 C1.32 0.99 2.64 1.98 4 3 C2.46356148 6.68069887 0.21849055 8.98775204 -2.625 11.75 C-3.85089844 12.94882812 -3.85089844 12.94882812 -5.1015625 14.171875 C-5.72804688 14.77515625 -6.35453125 15.3784375 -7 16 C-7.33 14.68 -7.66 13.36 -8 12 C-7.38125 11.773125 -6.7625 11.54625 -6.125 11.3125 C-3.32432182 9.58266936 -3.00633297 8.09087983 -2 5 C-1.33333333 3.33333333 -0.66666667 1.66666667 0 0 Z " fill="#2D7AD6" transform="translate(689,329)"/>
<path d="M0 0 C0 4.49780869 -2.72738841 6.58054862 -5.625 9.8125 C-7 11 -7 11 -9 11 C-9.2475 11.61875 -9.495 12.2375 -9.75 12.875 C-11.20628639 15.35068687 -12.37812506 15.95125002 -15 17 C-15.99 16.01 -16.98 15.02 -18 14 C-17.67 13.01 -17.34 12.02 -17 11 C-15.68 11.66 -14.36 12.32 -13 13 C-8.71 8.71 -4.42 4.42 0 0 Z " fill="#000720" transform="translate(654,372)"/>
<path d="M0 0 C5.6526847 0.67981216 10.7362264 2.52440539 16.0625 4.4375 C16.94744141 4.75009766 17.83238281 5.06269531 18.74414062 5.38476562 C22.86242549 6.84609251 26.96098066 8.32897121 31 10 C31 10.33 31 10.66 31 11 C26.12904396 11.49958524 23.12434161 10.33165571 18.85546875 8.2890625 C15.11204155 6.59914324 11.28752878 5.17672058 7.4375 3.75 C6.70998535 3.47978027 5.9824707 3.20956055 5.23291016 2.93115234 C3.48943664 2.28519063 1.74483647 1.64227109 0 1 C0 0.67 0 0.34 0 0 Z " fill="#010E2C" transform="translate(499,302)"/>
<path d="M0 0 C0.66 0.33 1.32 0.66 2 1 C2 2.32 2 3.64 2 5 C2.66 5.33 3.32 5.66 4 6 C4 6.66 4 7.32 4 8 C5.32 7.67 6.64 7.34 8 7 C8 8.65 8 10.3 8 12 C9.32 12.66 10.64 13.32 12 14 C11.34 14.66 10.68 15.32 10 16 C5.38 11.38 0.76 6.76 -4 2 C-2.68 1.34 -1.36 0.68 0 0 Z " fill="#2E79D4" transform="translate(12,233)"/>
<path d="M0 0 C-0.62759865 2.92879371 -1.58622659 5.36095629 -3 8 C-3.99 8 -4.98 8 -6 8 C-6.33 7.34 -6.66 6.68 -7 6 C-9.31 6.33 -11.62 6.66 -14 7 C-14 6.34 -14 5.68 -14 5 C-12.04350603 4.16235732 -10.08474444 3.33000941 -8.125 2.5 C-6.48917969 1.80390625 -6.48917969 1.80390625 -4.8203125 1.09375 C-2 0 -2 0 0 0 Z " fill="#2983ED" transform="translate(202,96)"/>
<path d="M0 0 C0.99 0 1.98 0 3 0 C3.66 0.99 4.32 1.98 5 3 C6.6396875 2.690625 6.6396875 2.690625 8.3125 2.375 C12 2 12 2 15 4 C13.35 5.65 11.7 7.3 10 9 C6.78956118 7.61811547 4.95063635 6.07578097 2.75 3.375 C2.22921875 2.74335938 1.7084375 2.11171875 1.171875 1.4609375 C0.78515625 0.97882813 0.3984375 0.49671875 0 0 Z " fill="#2D83E8" transform="translate(631,377)"/>
<path d="M0 0 C0.66 0.33 1.32 0.66 2 1 C0.1875 3 0.1875 3 -2 5 C-2.99 5 -3.98 5 -5 5 C-5.20625 5.804375 -5.4125 6.60875 -5.625 7.4375 C-6.07875 8.283125 -6.5325 9.12875 -7 10 C-10.125 10.8125 -10.125 10.8125 -13 11 C-13 11.66 -13 12.32 -13 13 C-14.32 12.67 -15.64 12.34 -17 12 C-14.72958215 10.37441681 -12.45868411 8.74951198 -10.1875 7.125 C-9.54490234 6.66480469 -8.90230469 6.20460937 -8.24023438 5.73046875 C-7.30727539 5.06337891 -7.30727539 5.06337891 -6.35546875 4.3828125 C-5.78465576 3.97434082 -5.21384277 3.56586914 -4.62573242 3.14501953 C-3.10133561 2.07137168 -1.55139015 1.0342601 0 0 Z " fill="#2D7CDD" transform="translate(87,154)"/>
<path d="M0 0 C5.47035213 3.79037089 9.89962427 7.75027653 14 13 C13.01 13 12.02 13 11 13 C9.28859531 11.03814584 7.62126675 9.03697617 6 7 C5.34 6.67 4.68 6.34 4 6 C4 6.66 4 7.32 4 8 C2.68 7.67 1.36 7.34 0 7 C0 4.69 0 2.38 0 0 Z " fill="#2E84ED" transform="translate(778,206)"/>
<path d="M0 0 C0.66 0.33 1.32 0.66 2 1 C1.67 1.33 1.34 1.66 1 2 C1.66 2.66 2.32 3.32 3 4 C0.41426224 7.23897677 -2.22622856 7.79301935 -6.1875 8.6875 C-7.81751953 9.06455078 -7.81751953 9.06455078 -9.48046875 9.44921875 C-10.31191406 9.63097656 -11.14335937 9.81273437 -12 10 C-8.29909479 6.0747975 -4.45040344 3.05419844 0 0 Z " fill="#2A80E5" transform="translate(252,407)"/>
<path d="M0 0 C-0.93972656 0.18175781 -0.93972656 0.18175781 -1.8984375 0.3671875 C-2.71570313 0.53476563 -3.53296875 0.70234375 -4.375 0.875 C-5.18710937 1.03742188 -5.99921875 1.19984375 -6.8359375 1.3671875 C-9.18673923 1.86658932 -9.18673923 1.86658932 -11 4 C-13.89967757 4.30675232 -16.71783178 4.51173371 -19.625 4.625 C-20.42679687 4.66367188 -21.22859375 4.70234375 -22.0546875 4.7421875 C-24.03607556 4.83653931 -26.01800645 4.91936215 -28 5 C-28 4.67 -28 4.34 -28 4 C-24.08638031 3.13144793 -20.16872948 2.28267221 -16.25 1.4375 C-15.13882812 1.19064453 -14.02765625 0.94378906 -12.8828125 0.68945312 C-11.81289063 0.46064453 -10.74296875 0.23183594 -9.640625 -0.00390625 C-8.65610352 -0.21861572 -7.67158203 -0.4333252 -6.65722656 -0.65454102 C-4.05664939 -0.99263516 -2.45708642 -0.83856995 0 0 Z " fill="#021132" transform="translate(308,146)"/>
<path d="M0 0 C2.64624284 0.14021805 5.29184578 0.28689776 7.9375 0.4375 C9.06961914 0.49647461 9.06961914 0.49647461 10.22460938 0.55664062 C15.88671875 0.88671875 15.88671875 0.88671875 17 2 C18.11375 2.12375 19.2275 2.2475 20.375 2.375 C23.90207504 2.98311639 24.94362388 3.21784407 27 6 C20.90373091 5.32969264 14.99077746 4.23964287 9 2.9375 C8.12988281 2.75123047 7.25976562 2.56496094 6.36328125 2.37304688 C4.24153748 1.9183875 2.12067429 1.45962195 0 1 C0 0.67 0 0.34 0 0 Z " fill="#2C74C9" transform="translate(461,292)"/>
<path d="M0 0 C-5.09492726 2.42773949 -9.5297707 3.61105388 -15.125 4.1875 C-16.15947266 4.3102832 -16.15947266 4.3102832 -17.21484375 4.43554688 C-20.82477868 4.84623737 -24.36738974 5.09187536 -28 5 C-23.52909788 2.56741584 -18.95373956 1.79263276 -14 0.8125 C-13.09765625 0.62236328 -12.1953125 0.43222656 -11.265625 0.23632812 C-10.39421875 0.06166016 -9.5228125 -0.11300781 -8.625 -0.29296875 C-7.83351563 -0.4530542 -7.04203125 -0.61313965 -6.2265625 -0.77807617 C-3.87742746 -1.01221693 -2.2354932 -0.7110323 0 0 Z " fill="#3079D2" transform="translate(332,218)"/>
<path d="M0 0 C0.33 0.99 0.66 1.98 1 3 C0.48050781 3.36351562 -0.03898437 3.72703125 -0.57421875 4.1015625 C-5.09730013 7.36219418 -8.62064189 10.56459248 -12 15 C-13.32 14.67 -14.64 14.34 -16 14 C-13.89817699 12.03909808 -11.79367717 10.08121556 -9.6875 8.125 C-8.79514648 7.29162109 -8.79514648 7.29162109 -7.88476562 6.44140625 C-7.30791016 5.90644531 -6.73105469 5.37148437 -6.13671875 4.8203125 C-5.60780029 4.32805176 -5.07888184 3.83579102 -4.53393555 3.32861328 C-3 2 -3 2 0 0 Z " fill="#317DDA" transform="translate(31,197)"/>
<path d="M0 0 C0.66 0.33 1.32 0.66 2 1 C0.88392409 3.60417711 -0.03523938 5.03121203 -2.1875 6.9375 C-2.785625 7.618125 -3.38375 8.29875 -4 9 C-3.85974801 11.70705512 -3.85974801 11.70705512 -3 14 C-4.65 12.68 -6.3 11.36 -8 10 C-6.34908222 5.70761377 -3.26245434 3.1206085 0 0 Z " fill="#2F7CD6" transform="translate(115,324)"/>
<path d="M0 0 C0 0.66 0 1.32 0 2 C-0.85464844 2.20496094 -1.70929688 2.40992188 -2.58984375 2.62109375 C-3.69457031 2.89050781 -4.79929687 3.15992188 -5.9375 3.4375 C-7.03964844 3.70433594 -8.14179688 3.97117188 -9.27734375 4.24609375 C-11.89421254 4.72995725 -11.89421254 4.72995725 -13 6 C-15.67058851 6.14115161 -18.32432238 6.04247107 -21 6 C-17.69504523 3.79669682 -14.87667528 2.95561629 -11.0625 1.875 C-9.83660156 1.52179688 -8.61070312 1.16859375 -7.34765625 0.8046875 C-4 0 -4 0 0 0 Z " fill="#2B78D0" transform="translate(296,225)"/>
<path d="M0 0 C1.65 0 3.3 0 5 0 C0.58990583 4.85110358 -4.58004353 8.348107 -10 12 C-10.33 11.01 -10.66 10.02 -11 9 C-9.49736177 5.99472353 -7.08347159 6.02782386 -4 5 C-3.67 4.34 -3.34 3.68 -3 3 C-2.01 3 -1.02 3 0 3 C0 2.01 0 1.02 0 0 Z " fill="#2C7DD7" transform="translate(108,228)"/>
<path d="M0 0 C0 3 0 3 -1 5 C-0.7215625 5.928125 -0.7215625 5.928125 -0.4375 6.875 C0.11989698 9.58235674 -0.59668102 10.68865109 -2 13 C-3.65 11.02 -5.3 9.04 -7 7 C-4.69 4.69 -2.38 2.38 0 0 Z " fill="#2A85EE" transform="translate(7,219)"/>
<path d="M0 0 C7.66795502 2.33937611 14.77137274 5.54768806 22 9 C18.06204091 10.22419163 15.83887763 9.48320272 12 8 C12 7.34 12 6.68 12 6 C11.42765625 5.86722656 10.8553125 5.73445313 10.265625 5.59765625 C8.02349125 5.00619683 5.91420381 4.26711146 3.75 3.4375 C3.04359375 3.16808594 2.3371875 2.89867188 1.609375 2.62109375 C1.07828125 2.41613281 0.5471875 2.21117188 0 2 C0 1.34 0 0.68 0 0 Z " fill="#307DD7" transform="translate(624,107)"/>
<path d="M0 0 C0.85078125 0.00322266 1.7015625 0.00644531 2.578125 0.00976562 C3.46757812 0.01814453 4.35703125 0.02652344 5.2734375 0.03515625 C6.170625 0.03966797 7.0678125 0.04417969 7.9921875 0.04882812 C10.21100398 0.06063034 12.42968768 0.0770947 14.6484375 0.09765625 C14.6484375 0.42765625 14.6484375 0.75765625 14.6484375 1.09765625 C11.60763329 1.60345339 8.56597104 2.10246384 5.5234375 2.59765625 C4.23953125 2.81228516 4.23953125 2.81228516 2.9296875 3.03125 C-1.54827755 3.75461359 -5.79719685 4.27684441 -10.3515625 4.09765625 C-6.67433575 1.27844908 -4.65798241 -0.03105322 0 0 Z " fill="#000D2B" transform="translate(353.3515625,363.90234375)"/>
<path d="M0 0 C2.93774463 -0.05390357 5.87450232 -0.0936255 8.8125 -0.125 C10.06256836 -0.15013672 10.06256836 -0.15013672 11.33789062 -0.17578125 C12.14033203 -0.18222656 12.94277344 -0.18867188 13.76953125 -0.1953125 C14.50792236 -0.20578613 15.24631348 -0.21625977 16.00708008 -0.22705078 C18 0 18 0 21 2 C21 2.66 21 3.32 21 4 C18.4372008 3.68981396 15.8747789 3.37693109 13.3125 3.0625 C12.59126953 2.97548828 11.87003906 2.88847656 11.12695312 2.79882812 C7.37989416 2.33686195 3.69207089 1.80832321 0 1 C0 0.67 0 0.34 0 0 Z " fill="#031435" transform="translate(433,364)"/>
<path d="M0 0 C5.66129431 4.69766975 10.85228904 9.74723372 16 15 C13 15 13 15 11 14 C11 13.34 11 12.68 11 12 C10.4225 11.773125 9.845 11.54625 9.25 11.3125 C6.43086319 9.66800353 4.98745131 7.5644533 3 5 C2.01 4.34 1.02 3.68 0 3 C0 2.01 0 1.02 0 0 Z " fill="#000721" transform="translate(6,233)"/>
<path d="M0 0 C2.8125 -0.3125 2.8125 -0.3125 6 0 C7.05771739 1.63064764 8.05273046 3.30280873 9 5 C10.010625 5.495 11.02125 5.99 12.0625 6.5 C15.57882186 8.29556861 15.77658211 9.39413674 17 13 C4.91349125 5.11019567 4.91349125 5.11019567 0 1 C0 0.67 0 0.34 0 0 Z " fill="#307FDB" transform="translate(688,229)"/>
<path d="M0 0 C0.33 0 0.66 0 1 0 C1.17835515 4.54805635 0.99785435 7.8794254 -1 12 C-1.66 12 -2.32 12 -3 12 C-2.938125 13.1446875 -2.938125 13.1446875 -2.875 14.3125 C-3 17 -3 17 -5 20 C-5.66 20 -6.32 20 -7 20 C-4.80962826 13.27954125 -2.44234339 6.63275997 0 0 Z " fill="#000D2B" transform="translate(508,658)"/>
<path d="M0 0 C0.99 0 1.98 0 3 0 C1.45941767 5.01508715 -0.02931839 9.6147081 -3 14 C-4.55952523 10.88094953 -3.6359489 8.35318513 -3 5 C-2.15938908 3.00354906 -1.52275202 1.52275202 0 0 Z " fill="#0A58B4" transform="translate(502,667)"/>
<path d="M0 0 C-0.61875 0.0825 -1.2375 0.165 -1.875 0.25 C-2.57625 0.4975 -3.2775 0.745 -4 1 C-4.2475 1.66 -4.495 2.32 -4.75 3 C-5.1625 3.66 -5.575 4.32 -6 5 C-8.74132156 5.50257562 -11.24325267 5.80600667 -14 6 C-16.00189873 6.32173372 -18.00276453 6.65048379 -20 7 C-17.16142754 4.16142754 -13.6940834 3.1848649 -10 1.8125 C-8.89398438 1.38420898 -8.89398438 1.38420898 -7.765625 0.94726562 C-2.24553571 -1.12276786 -2.24553571 -1.12276786 0 0 Z " fill="#2D79D4" transform="translate(314,378)"/>
<path d="M0 0 C8.79705092 -0.38064163 17.31163005 0.79268308 26 2 C26 2.33 26 2.66 26 3 C8.14350797 3.3690205 8.14350797 3.3690205 0 1 C0 0.67 0 0.34 0 0 Z " fill="#011030" transform="translate(424,288)"/>
<path d="M0 0 C3.29737324 2.68344789 4.61094587 6.2359501 6.1875 10.0625 C6.46013672 10.69994141 6.73277344 11.33738281 7.01367188 11.99414062 C9 16.71851504 9 16.71851504 9 19 C8.01 19 7.02 19 6 19 C4.80712589 15.12315913 4 12.08378077 4 8 C3.01 8 2.02 8 1 8 C0.67 5.36 0.34 2.72 0 0 Z " fill="#0B51A5" transform="translate(499,573)"/>
<path d="M0 0 C0 4.17403944 -2.22708106 6.14087632 -5 9 C-6.06767676 9.93485573 -7.15071935 10.85251967 -8.25 11.75 C-11.02359938 13.70631884 -11.02359938 13.70631884 -12 16 C-12.99 15.67 -13.98 15.34 -15 15 C-10.05 10.05 -5.1 5.1 0 0 Z " fill="#000722" transform="translate(566,460)"/>
<path d="M0 0 C0 4.31618166 -2.13270348 5.92789659 -5 9 C-5.66 9 -6.32 9 -7 9 C-7 9.66 -7 10.32 -7 11 C-8.95927063 12.7143618 -10.95880212 14.38405168 -13 16 C-13.66 15.67 -14.32 15.34 -15 15 C-10.05 10.05 -5.1 5.1 0 0 Z " fill="#000622" transform="translate(678,348)"/>
<path d="M0 0 C3.93673644 1.31224548 6.22719294 2.91910327 9 6 C5.37 6 1.74 6 -2 6 C-1 2 -1 2 0 0 Z " fill="#2984EE" transform="translate(627,280)"/>
<path d="M0 0 C4.91935902 4.11619836 9.52647956 8.40410362 14 13 C13.01 13.33 12.02 13.66 11 14 C9.29115995 12.37660195 7.62553283 10.70680947 6 9 C6 8.34 6 7.68 6 7 C5.38125 6.71125 4.7625 6.4225 4.125 6.125 C2 5 2 5 0 3 C0 2.01 0 1.02 0 0 Z " fill="#000821" transform="translate(107,334)"/>
<path d="M0 0 C4.91935902 4.11619836 9.52647956 8.40410362 14 13 C10.31446856 13 8.96240248 12.1477418 6 10 C4.375 7.5 4.375 7.5 3 5 C2.443125 4.443125 1.88625 3.88625 1.3125 3.3125 C0.879375 2.879375 0.44625 2.44625 0 2 C0 1.34 0 0.68 0 0 Z " fill="#000720" transform="translate(22,249)"/>
<path d="M0 0 C4.91935902 4.11619836 9.52647956 8.40410362 14 13 C11 13 11 13 8 11 C8 10.34 8 9.68 8 9 C7.38125 8.7525 6.7625 8.505 6.125 8.25 C3.64931313 6.79371361 3.04874998 5.62187494 2 3 C1.34 3 0.68 3 0 3 C0 2.01 0 1.02 0 0 Z " fill="#000721" transform="translate(121,348)"/>
<path d="M0 0 C0.66 0.33 1.32 0.66 2 1 C-1.50080855 5.53118837 -4.45218678 8.98261337 -10 11 C-10.66 10.67 -11.32 10.34 -12 10 C-8.04 6.7 -4.08 3.4 0 0 Z " fill="#000D27" transform="translate(103,235)"/>
<path d="M0 0 C-1.36983503 3.16115776 -1.9890638 3.9927092 -5 6 C-7.26171875 6.6328125 -7.26171875 6.6328125 -9.6875 7.125 C-10.49574219 7.29257813 -11.30398437 7.46015625 -12.13671875 7.6328125 C-12.75160156 7.75398437 -13.36648437 7.87515625 -14 8 C-11.72402354 5.50447597 -9.39278822 3.93377014 -6.4375 2.3125 C-5.65246094 1.87550781 -4.86742187 1.43851563 -4.05859375 0.98828125 C-2 0 -2 0 0 0 Z " fill="#2E7AD6" transform="translate(134,127)"/>
<path d="M0 0 C-0.33 0.66 -0.66 1.32 -1 2 C-2.93107126 2.26635466 -4.86439797 2.52316755 -6.8046875 2.7109375 C-9.29345543 2.97913973 -9.29345543 2.97913973 -12.75 4.125 C-15.979584 4.99450339 -16.95927503 4.93865858 -20 4 C-6.3667426 -0.59225513 -6.3667426 -0.59225513 0 0 Z " fill="#2F75CB" transform="translate(383,515)"/>
<path d="M0 0 C4.9723422 1.49170266 9.41845739 3.60457417 14 6 C13.01 7.485 13.01 7.485 12 9 C7.73176286 8.52575143 5.82507269 6.04238597 3 3 C2.401875 2.401875 1.80375 1.80375 1.1875 1.1875 C0.795625 0.795625 0.40375 0.40375 0 0 Z " fill="#2C7EDA" transform="translate(582,254)"/>
<path d="M0 0 C2.46073955 1.28724818 4.91858171 2.57955313 7.375 3.875 C8.07367187 4.23980469 8.77234375 4.60460937 9.4921875 4.98046875 C14.7734375 7.7734375 14.7734375 7.7734375 17 10 C15.5608866 9.71640113 14.12374482 9.42278601 12.6875 9.125 C11.88699219 8.96257812 11.08648438 8.80015625 10.26171875 8.6328125 C8 8 8 8 5 6 C5 5.34 5 4.68 5 4 C2.525 3.01 2.525 3.01 0 2 C0 1.34 0 0.68 0 0 Z " fill="#3280DB" transform="translate(663,125)"/>
<path d="M0 0 C-2.35790395 3.06527514 -3.7104105 4.72042487 -7.55859375 5.5546875 C-10.0440291 5.78736655 -12.50459714 5.94670013 -15 6 C-12.25093187 3.81580889 -9.57798444 2.18545122 -6.375 0.75 C-5.59898437 0.39421875 -4.82296875 0.0384375 -4.0234375 -0.328125 C-2 -1 -2 -1 0 0 Z " fill="#2F7EDC" transform="translate(167,112)"/>
<path d="M0 0 C4.29 0.33 8.58 0.66 13 1 C13 1.66 13 2.32 13 3 C15.31 3.33 17.62 3.66 20 4 C20 4.66 20 5.32 20 6 C17.22729571 5.38251126 14.45704402 4.75637544 11.6875 4.125 C10.90181641 3.95097656 10.11613281 3.77695312 9.30664062 3.59765625 C8.54931641 3.42363281 7.79199219 3.24960937 7.01171875 3.0703125 C6.31522217 2.91320801 5.61872559 2.75610352 4.90112305 2.59423828 C3 2 3 2 0 0 Z " fill="#2C72C5" transform="translate(442,442)"/>
<path d="M0 0 C1.32 0 2.64 0 4 0 C4 0.66 4 1.32 4 2 C4.99 2 5.98 2 7 2 C7.66 2.66 8.32 3.32 9 4 C11.06874034 4.6425235 11.06874034 4.6425235 13 5 C12.34 6.32 11.68 7.64 11 9 C9.16384919 7.69144447 7.33114211 6.37805538 5.5 5.0625 C4.4790625 4.33160156 3.458125 3.60070312 2.40625 2.84765625 C1.6121875 2.23792969 0.818125 1.62820313 0 1 C0 0.67 0 0.34 0 0 Z " fill="#020C27" transform="translate(557,414)"/>
<path d="M0 0 C0.33 0.66 0.66 1.32 1 2 C-0.28062485 3.7074998 -1.61767557 5.37373596 -3 7 C-3.66 7 -4.32 7 -5 7 C-5 7.66 -5 8.32 -5 9 C-6.95927063 10.7143618 -8.95880212 12.38405168 -11 14 C-11.66 13.67 -12.32 13.34 -13 13 C-8.71 8.71 -4.42 4.42 0 0 Z " fill="#000723" transform="translate(692,334)"/>
<path d="M0 0 C0.38800781 0.46019531 0.77601563 0.92039062 1.17578125 1.39453125 C3.41805702 3.36792599 5.31817531 3.9049569 8.1875 4.6875 C9.08855469 4.93886719 9.98960937 5.19023437 10.91796875 5.44921875 C11.60503906 5.63097656 12.29210937 5.81273437 13 6 C13 6.66 13 7.32 13 8 C12.29875 7.80664062 11.5975 7.61328125 10.875 7.4140625 C5.26507866 5.874383 -0.35010447 4.38582343 -6 3 C-6 2.67 -6 2.34 -6 2 C-4.02 2 -2.04 2 0 2 C0 1.34 0 0.68 0 0 Z " fill="#2D77CE" transform="translate(494,296)"/>
<path d="M0 0 C1.98 0 3.96 0 6 0 C6 1.65 6 3.3 6 5 C6.99 5 7.98 5 9 5 C9.33 6.65 9.66 8.3 10 10 C2.51708428 3.84965831 2.51708428 3.84965831 0 0 Z " fill="#2D78D1" transform="translate(26,252)"/>
<path d="M0 0 C3.63 0.33 7.26 0.66 11 1 C11 1.66 11 2.32 11 3 C12.65 3.33 14.3 3.66 16 4 C16 4.66 16 5.32 16 6 C10.63904723 4.41078475 5.29156027 2.81027062 0 1 C0 0.67 0 0.34 0 0 Z " fill="#021533" transform="translate(576,88)"/>
<path d="M0 0 C0 0.66 0 1.32 0 2 C-0.99 2 -1.98 2 -3 2 C-3.33 2.99 -3.66 3.98 -4 5 C-5.65438613 5.69658363 -7.32254318 6.36096883 -9 7 C-10.77277259 8.52007842 -10.77277259 8.52007842 -12 10 C-12.99 9.67 -13.98 9.34 -15 9 C-13.20966193 7.68568828 -11.41768797 6.3736047 -9.625 5.0625 C-8.62726563 4.33160156 -7.62953125 3.60070312 -6.6015625 2.84765625 C-2.59196617 0 -2.59196617 0 0 0 Z " fill="#327BD5" transform="translate(344,529)"/>
<path d="M0 0 C0.33 0.66 0.66 1.32 1 2 C2.98 1.67 4.96 1.34 7 1 C4.42215154 3.64752004 2.08351902 5.94432065 -1 8 C-1.625 5.6875 -1.625 5.6875 -2 3 C-1.34 2.01 -0.68 1.02 0 0 Z " fill="#2C7EE2" transform="translate(77,250)"/>
<path d="M0 0 C0.66 0.33 1.32 0.66 2 1 C-0.23466821 4.41080937 -2.52320673 5.94958346 -6 8 C-6.99 9.485 -6.99 9.485 -8 11 C-9.32 10.67 -10.64 10.34 -12 10 C-8.04 6.7 -4.08 3.4 0 0 Z " fill="#307BD5" transform="translate(60,173)"/>
<path d="M0 0 C1.37478516 0.01740234 1.37478516 0.01740234 2.77734375 0.03515625 C3.69644531 0.04417969 4.61554688 0.05320312 5.5625 0.0625 C6.27277344 0.07410156 6.98304688 0.08570312 7.71484375 0.09765625 C4.61060818 1.77819986 1.54985441 2.83755124 -1.84765625 3.78515625 C-2.79769531 4.05714844 -3.74773437 4.32914062 -4.7265625 4.609375 C-7.28515625 5.09765625 -7.28515625 5.09765625 -10.28515625 4.09765625 C-9.15078125 3.62328125 -8.01640625 3.14890625 -6.84765625 2.66015625 C-0.86697443 0.03705019 -0.86697443 0.03705019 0 0 Z " fill="#000923" transform="translate(253.28515625,76.90234375)"/>
<path d="M0 0 C-3.13164723 2.52940738 -6.27808042 4.44920018 -10 6 C-12.375 5.6875 -12.375 5.6875 -14 5 C-9.17557107 1.20937727 -6.25196725 -0.28418033 0 0 Z " fill="#0C58B4" transform="translate(454,725)"/>
<path d="M0 0 C4.25171681 3.3618226 7.6381774 6.74828319 11 11 C7.65750371 10.40312566 5.53563658 9.26396123 3 7 C3 6.34 3 5.68 3 5 C2.34 5 1.68 5 1 5 C0.67 3.35 0.34 1.7 0 0 Z " fill="#031739" transform="translate(315,701)"/>
<path d="M0 0 C-2.0683684 1.6990169 -3.55211478 2.89762624 -6.1875 3.5 C-6.785625 3.665 -7.38375 3.83 -8 4 C-8.33 4.99 -8.66 5.98 -9 7 C-11.97 6.505 -11.97 6.505 -15 6 C-11.57875892 3.02500775 -4.44240633 -2.22120316 0 0 Z " fill="#2C79D3" transform="translate(362,521)"/>
<path d="M0 0 C-1.47703954 3.85205198 -3.48702291 5.25475324 -7 7.3125 C-7.886875 7.84488281 -8.77375 8.37726563 -9.6875 8.92578125 C-10.450625 9.28027344 -11.21375 9.63476562 -12 10 C-12.66 9.67 -13.32 9.34 -14 9 C-12.04594482 7.49412261 -10.08718716 5.99521356 -8.125 4.5 C-7.56941406 4.07074219 -7.01382813 3.64148438 -6.44140625 3.19921875 C-2.2265625 0 -2.2265625 0 0 0 Z " fill="#010D2B" transform="translate(212,344)"/>
<path d="M0 0 C4.9335117 2.35406142 9.51978158 4.86384711 14 8 C12.68 8.33 11.36 8.66 10 9 C10 8.34 10 7.68 10 7 C9.0925 6.71125 8.185 6.4225 7.25 6.125 C4.67797092 5.23468224 2.38653234 4.28505587 0 3 C0 2.01 0 1.02 0 0 Z " fill="#000C28" transform="translate(569,332)"/>
<path d="M0 0 C0.33 1.32 0.66 2.64 1 4 C-0.07429598 4.84495189 -1.15989202 5.67554858 -2.25 6.5 C-3.15492188 7.19609375 -3.15492188 7.19609375 -4.078125 7.90625 C-6 9 -6 9 -10 9 C-9 7 -9 7 -7.25 6.1875 C-4.27792388 4.61890427 -2.29748431 2.42512233 0 0 Z " fill="#03112E" transform="translate(755,271)"/>
<path d="M0 0 C4.08963819 2.28538605 7.46362104 4.95706926 11 8 C10.01 8.495 10.01 8.495 9 9 C8.01 8.67 7.02 8.34 6 8 C6 7.34 6 6.68 6 6 C4.02 5.34 2.04 4.68 0 4 C0 2.68 0 1.36 0 0 Z " fill="#010C28" transform="translate(700,239)"/>
<path d="M0 0 C-3.27301919 2.96909598 -5.38065762 3.34354794 -9.75 3.1875 C-11.22726563 3.14689453 -11.22726563 3.14689453 -12.734375 3.10546875 C-13.85585937 3.05326172 -13.85585937 3.05326172 -15 3 C-5.21459227 -2.08583691 -5.21459227 -2.08583691 0 0 Z " fill="#2E77D6" transform="translate(254,81)"/>
<path d="M0 0 C-0.33 0.99 -0.66 1.98 -1 3 C-5.95 3 -10.9 3 -16 3 C-16 2.67 -16 2.34 -16 2 C-13.89627599 1.66388432 -11.79200343 1.33120054 -9.6875 1 C-8.51574219 0.814375 -7.34398437 0.62875 -6.13671875 0.4375 C-3 0 -3 0 0 0 Z " fill="#2A73C7" transform="translate(320,66)"/>
<path d="M0 0 C5.00099548 2.65848126 9.7045025 5.25876024 14 9 C12.35 9.33 10.7 9.66 9 10 C8.67 8.68 8.34 7.36 8 6 C7.01 6 6.02 6 5 6 C5 5.34 5 4.68 5 4 C4.01 4 3.02 4 2 4 C2 3.34 2 2.68 2 2 C1.34 2 0.68 2 0 2 C0 1.34 0 0.68 0 0 Z " fill="#020E30" transform="translate(332,717)"/>
<path d="M0 0 C0 0.66 0 1.32 0 2 C-1.63790712 3.04644066 -3.31008021 4.0398183 -5 5 C-5.680625 5.5775 -6.36125 6.155 -7.0625 6.75 C-9 8 -9 8 -11.12109375 7.578125 C-11.74113281 7.38734375 -12.36117187 7.1965625 -13 7 C-11.21190303 5.82786955 -9.41940875 4.66244474 -7.625 3.5 C-6.62726563 2.8503125 -5.62953125 2.200625 -4.6015625 1.53125 C-2 0 -2 0 0 0 Z " fill="#2F7CD9" transform="translate(190,269)"/>
<path d="M0 0 C3.98363358 1.32787786 6.10630834 3.00985195 9 6 C9.99 6.33 10.98 6.66 12 7 C12.33 8.65 12.66 10.3 13 12 C12.56429687 11.62488281 12.12859375 11.24976563 11.6796875 10.86328125 C11.08414063 10.35152344 10.48859375 9.83976562 9.875 9.3125 C8.92560547 8.49652344 8.92560547 8.49652344 7.95703125 7.6640625 C6.17588663 6.14955629 4.37365561 4.66581794 2.5625 3.1875 C1.716875 2.465625 0.87125 1.74375 0 1 C0 0.67 0 0.34 0 0 Z " fill="#3279CB" transform="translate(728,262)"/>
<path d="M0 0 C1.29608947 0.93137592 2.58671632 1.8703566 3.875 2.8125 C4.59429688 3.33457031 5.31359375 3.85664063 6.0546875 4.39453125 C8 6 8 6 10 9 C8.35 9 6.7 9 5 9 C4.67 8.34 4.34 7.68 4 7 C4.33 6.34 4.66 5.68 5 5 C3.35 4.67 1.7 4.34 0 4 C0 2.68 0 1.36 0 0 Z " fill="#000A21" transform="translate(716,252)"/>
<path d="M0 0 C3.93673644 1.31224548 6.22719294 2.91910327 9 6 C8.01 6.495 8.01 6.495 7 7 C7 6.34 7 5.68 7 5 C5.02 5.33 3.04 5.66 1 6 C0.67 4.02 0.34 2.04 0 0 Z " fill="#2A7EE4" transform="translate(547,408)"/>
<path d="M0 0 C4.13621084 3.3810038 7.81316569 6.66590534 11 11 C7.08158173 9.69386058 4.67359191 8.16870152 2 5 C2 4.34 2 3.68 2 3 C1.34 3 0.68 3 0 3 C0 2.01 0 1.02 0 0 Z " fill="#000722" transform="translate(137,364)"/>
<path d="M0 0 C-2.45475514 1.03028044 -4.91314351 2.04945504 -7.375 3.0625 C-8.42300781 3.50432617 -8.42300781 3.50432617 -9.4921875 3.95507812 C-11.30504908 4.69591098 -13.15123143 5.35396964 -15 6 C-15.66 5.67 -16.32 5.34 -17 5 C-15.68 4.67 -14.36 4.34 -13 4 C-13 3.34 -13 2.68 -13 2 C-11.5882217 1.46605821 -10.17029756 0.94834896 -8.75 0.4375 C-7.96109375 0.14746094 -7.1721875 -0.14257812 -6.359375 -0.44140625 C-3.80896548 -1.04522837 -2.44677771 -0.8473932 0 0 Z " fill="#000C2A" transform="translate(247,241)"/>
<path d="M0 0 C0.33 0.99 0.66 1.98 1 3 C-1.66666667 5.66666667 -4.33333333 8.33333333 -7 11 C-7.99 10.67 -8.98 10.34 -10 10 C-6.7 6.7 -3.4 3.4 0 0 Z " fill="#000720" transform="translate(793,233)"/>
<path d="M0 0 C-5.28 1.98 -10.56 3.96 -16 6 C-16 5.34 -16 4.68 -16 4 C-15.34 4 -14.68 4 -14 4 C-14 3.34 -14 2.68 -14 2 C-10.97265625 1.26757812 -10.97265625 1.26757812 -7.9453125 0.53515625 C-3.14340344 -0.78585086 -3.14340344 -0.78585086 0 0 Z " fill="#000D2A" transform="translate(200,97)"/>
<path d="M0 0 C0.33 0.99 0.66 1.98 1 3 C-1.25 5.5625 -1.25 5.5625 -4 8 C-5.32 7.67 -6.64 7.34 -8 7 C-5.36 4.69 -2.72 2.38 0 0 Z " fill="#000B20" transform="translate(184,364)"/>
<path d="M0 0 C1.98 0 3.96 0 6 0 C2.17058011 3.32993034 -2.37522222 5.05324525 -7 7 C-6.67 6.01 -6.34 5.02 -6 4 C-5.01 4 -4.02 4 -3 4 C-3 3.34 -3 2.68 -3 2 C-2.01 2 -1.02 2 0 2 C0 1.34 0 0.68 0 0 Z " fill="#000E2A" transform="translate(138,121)"/>
<path d="M0 0 C-2 2 -2 2 -5.2578125 2.1953125 C-6.53398437 2.17210937 -7.81015625 2.14890625 -9.125 2.125 C-11.04699219 2.09792969 -11.04699219 2.09792969 -13.0078125 2.0703125 C-14.48894531 2.03550781 -14.48894531 2.03550781 -16 2 C-16 1.67 -16 1.34 -16 1 C-14.0852312 0.63571223 -12.16807707 0.28394694 -10.25 -0.0625 C-9.18265625 -0.25972656 -8.1153125 -0.45695313 -7.015625 -0.66015625 C-4.25228095 -0.97156937 -2.59053383 -0.8991416 0 0 Z " fill="#000F2F" transform="translate(428,737)"/>
<path d="M0 0 C0.66 0 1.32 0 2 0 C0.68775452 3.93673644 -0.91910327 6.22719294 -4 9 C-4 6.69 -4 4.38 -4 2 C-3.01 2 -2.02 2 -1 2 C-0.67 1.34 -0.34 0.68 0 0 Z " fill="#0B58B7" transform="translate(495,683)"/>
<path d="M0 0 C1.83979073 2.7596861 2.48323221 4.29741882 3.1875 7.4375 C3.45626953 8.58025391 3.45626953 8.58025391 3.73046875 9.74609375 C4.0154963 12.12958496 3.72875415 13.73104204 3 16 C3 15.34 3 14.68 3 14 C2.34 14 1.68 14 1 14 C0.67 9.38 0.34 4.76 0 0 Z " fill="#0C4C9B" transform="translate(508,594)"/>
<path d="M0 0 C1.65 0 3.3 0 5 0 C2.15118272 2.17581687 -0.76084088 4.20937999 -3.75 6.1875 C-4.54921875 6.71730469 -5.3484375 7.24710938 -6.171875 7.79296875 C-6.77515625 8.19128906 -7.3784375 8.58960938 -8 9 C-7.3046875 5.21875 -7.3046875 5.21875 -4.5625 3.25 C-2 2 -2 2 0 2 C0 1.34 0 0.68 0 0 Z " fill="#021030" transform="translate(339,528)"/>
<path d="M0 0 C7.33333333 -0.36666667 7.33333333 -0.36666667 10.5 1.375 C12 3 12 3 12 5 C10.56068883 4.54738642 9.12361001 4.08767021 7.6875 3.625 C6.88699219 3.36976563 6.08648437 3.11453125 5.26171875 2.8515625 C3 2 3 2 0 0 Z " fill="#2E7CD9" transform="translate(468,450)"/>
<path d="M0 0 C3.46941546 0.45822468 6.67395049 0.89131683 10 2 C11.1875 4.0625 11.1875 4.0625 12 6 C7.76570244 4.68938409 3.92592596 3.05643741 0 1 C0 0.67 0 0.34 0 0 Z " fill="#317ED9" transform="translate(619,187)"/>
<path d="M0 0 C3.66172475 0.62678171 6.8818995 1.64451846 10.3125 3.0625 C11.19550781 3.42472656 12.07851563 3.78695312 12.98828125 4.16015625 C13.65214844 4.43730469 14.31601562 4.71445313 15 5 C11.21180727 6.43410153 8.93478721 5.51009497 5.25 4.0625 C3.77273438 3.49208984 3.77273438 3.49208984 2.265625 2.91015625 C1.51796875 2.60980469 0.7703125 2.30945313 0 2 C0 1.34 0 0.68 0 0 Z " fill="#000F2F" transform="translate(581,171)"/>
<path d="M0 0 C1.12894876 0.93274109 2.25300876 1.87140122 3.375 2.8125 C4.00148437 3.33457031 4.62796875 3.85664063 5.2734375 4.39453125 C7 6 7 6 9 9 C7.68 8.67 6.36 8.34 5 8 C5 7.34 5 6.68 5 6 C4.01 6 3.02 6 2 6 C0 3 0 3 0 0 Z " fill="#00071D" transform="translate(222,449)"/>
<path d="M0 0 C0.66 0.33 1.32 0.66 2 1 C-0.97 3.64 -3.94 6.28 -7 9 C-7.33 8.01 -7.66 7.02 -8 6 C-6.625 4.5 -6.625 4.5 -5 3 C-4.34 3 -3.68 3 -3 3 C-3 2.34 -3 1.68 -3 1 C-2.01 0.67 -1.02 0.34 0 0 Z " fill="#307EDA" transform="translate(176,369)"/>
<path d="M0 0 C1.75094232 0.06037732 3.50091527 0.14926737 5.25 0.25 C6.71179688 0.31960938 6.71179688 0.31960938 8.203125 0.390625 C11.57817054 1.12597012 12.81141609 2.39454297 15 5 C13.06077578 4.54901762 11.12366406 4.08894441 9.1875 3.625 C8.10855469 3.36976563 7.02960938 3.11453125 5.91796875 2.8515625 C3 2 3 2 0 0 Z " fill="#021738" transform="translate(472,372)"/>
<path d="M0 0 C0.99 0.33 1.98 0.66 3 1 C1.68 2.65 0.36 4.3 -1 6 C-3.88437779 4.70700306 -5.87219421 3.34058637 -8 1 C-5.36 1.66 -2.72 2.32 0 3 C0 2.01 0 1.02 0 0 Z " fill="#3279CD" transform="translate(749,273)"/>
<path d="M0 0 C-1.81817001 2.31459868 -2.75615543 2.95377187 -5.69921875 3.51171875 C-7.17841797 3.59873047 -7.17841797 3.59873047 -8.6875 3.6875 C-10.17830078 3.78611328 -10.17830078 3.78611328 -11.69921875 3.88671875 C-12.45847656 3.92410156 -13.21773437 3.96148437 -14 4 C-11.37350692 2.24900461 -9.38191413 1.30690675 -6.4375 0.3125 C-5.65246094 0.04050781 -4.86742187 -0.23148437 -4.05859375 -0.51171875 C-2 -1 -2 -1 0 0 Z " fill="#2A71BF" transform="translate(234,86)"/>
<path d="M0 0 C2.475 0.495 2.475 0.495 5 1 C5 1.66 5 2.32 5 3 C5.99 3.33 6.98 3.66 8 4 C7.67 5.32 7.34 6.64 7 8 C5.83035398 6.8572081 4.66435444 5.71068285 3.5 4.5625 C2.8503125 3.92441406 2.200625 3.28632813 1.53125 2.62890625 C0 1 0 1 0 0 Z " fill="#2F7AD7" transform="translate(118,344)"/>
<path d="M0 0 C0.99 0 1.98 0 3 0 C3 0.99 3 1.98 3 3 C3.78375 3.103125 4.5675 3.20625 5.375 3.3125 C8 4 8 4 10 7 C5.94718288 5.77472971 2.55639236 4.30119506 -1 2 C-0.67 1.34 -0.34 0.68 0 0 Z " fill="#2F80DB" transform="translate(544,316)"/>
<path d="M0 0 C0.66 0.33 1.32 0.66 2 1 C1.67 2.32 1.34 3.64 1 5 C-0.65 4.67 -2.3 4.34 -4 4 C-4 4.66 -4 5.32 -4 6 C-5.32 5.67 -6.64 5.34 -8 5 C-6.71475739 4.13619741 -5.42157581 3.28419631 -4.125 2.4375 C-3.04605469 1.72400391 -3.04605469 1.72400391 -1.9453125 0.99609375 C-1.30335938 0.66738281 -0.66140625 0.33867187 0 0 Z " fill="#2D7DDC" transform="translate(198,263)"/>
<path d="M0 0 C3.59007126 1.33345504 6.79570907 2.8943231 10 5 C10 5.33 10 5.66 10 6 C6.29706315 6.33663062 4.60465619 6.47736015 1.625 4.125 C0 2 0 2 0 0 Z " fill="#2F80E0" transform="translate(683,137)"/>
<path d="M0 0 C0.98484375 0.02707031 1.9696875 0.05414063 2.984375 0.08203125 C3.73203125 0.11683594 4.4796875 0.15164062 5.25 0.1875 C5.25 0.5175 5.25 0.8475 5.25 1.1875 C3.68883181 1.52701619 2.12598662 1.85882544 0.5625 2.1875 C-0.74267578 2.4659375 -0.74267578 2.4659375 -2.07421875 2.75 C-4.68712964 3.17722047 -7.10813038 3.26366201 -9.75 3.1875 C-6.47698081 0.21840402 -4.36934238 -0.15604794 0 0 Z " fill="#010E2E" transform="translate(303.75,66.8125)"/>
<path d="M0 0 C-2.5652659 1.71017726 -4.87960965 2.90417811 -7.6875 4.125 C-8.49574219 4.47820313 -9.30398438 4.83140625 -10.13671875 5.1953125 C-10.75160156 5.46085938 -11.36648438 5.72640625 -12 6 C-12 5.01 -12 4.02 -12 3 C-4.71428571 -0.42857143 -4.71428571 -0.42857143 0 0 Z " fill="#000D28" transform="translate(358,521)"/>
<path d="M0 0 C0.33 1.32 0.66 2.64 1 4 C1.99 4 2.98 4 4 4 C4.33 5.65 4.66 7.3 5 9 C3.85073734 8.04578192 2.70569459 7.08647955 1.5625 6.125 C0.92441406 5.59132813 0.28632813 5.05765625 -0.37109375 4.5078125 C-2 3 -2 3 -3 1 C-2.01 0.67 -1.02 0.34 0 0 Z " fill="#2C7CD7" transform="translate(259,481)"/>
<path d="M0 0 C1.32 0.33 2.64 0.66 4 1 C4 1.66 4 2.32 4 3 C5.32 3 6.64 3 8 3 C8 4.65 8 6.3 8 8 C6.85073734 7.04578192 5.70569459 6.08647955 4.5625 5.125 C3.92441406 4.59132813 3.28632813 4.05765625 2.62890625 3.5078125 C1 2 1 2 0 0 Z " fill="#2D75CB" transform="translate(220,446)"/>
<path d="M0 0 C1.32 0.66 2.64 1.32 4 2 C2.35 3.65 0.7 5.3 -1 7 C-2.32 6.34 -3.64 5.68 -5 5 C-4.34 4.67 -3.68 4.34 -3 4 C-2.34 4.33 -1.68 4.66 -1 5 C-0.67 3.35 -0.34 1.7 0 0 Z " fill="#3377C7" transform="translate(642,379)"/>
<path d="M0 0 C-0.1875 1.8125 -0.1875 1.8125 -1 4 C-3.4375 5.8125 -3.4375 5.8125 -6 7 C-6.66 6.67 -7.32 6.34 -8 6 C-7.0479279 4.99403703 -6.08812654 3.99538437 -5.125 3 C-4.59132812 2.443125 -4.05765625 1.88625 -3.5078125 1.3125 C-2 0 -2 0 0 0 Z " fill="#010F27" transform="translate(176,372)"/>
<path d="M0 0 C1.32 1.32 2.64 2.64 4 4 C3.67 4.99 3.34 5.98 3 7 C0.69 5.35 -1.62 3.7 -4 2 C-2.68 1.34 -1.36 0.68 0 0 Z " fill="#020C22" transform="translate(646,288)"/>
<path d="M0 0 C4.43090471 1.20842856 6.98112756 2.51668565 10 6 C6.846502 5.29922267 3.91038896 4.4158649 1 3 C0.67 2.01 0.34 1.02 0 0 Z " fill="#3078D5" transform="translate(603,265)"/>
<path d="M0 0 C1.32 1.32 2.64 2.64 4 4 C1.03 6.475 1.03 6.475 -2 9 C-2.33 7.68 -2.66 6.36 -3 5 C-1.68 5 -0.36 5 1 5 C0.67 3.35 0.34 1.7 0 0 Z " fill="#2F79D5" transform="translate(796,223)"/>
<path d="M0 0 C-1.36983503 3.16115776 -1.9890638 3.9927092 -5 6 C-7.1875 5.625 -7.1875 5.625 -9 5 C-7.87926138 4.16094435 -6.75325453 3.32892169 -5.625 2.5 C-4.99851562 2.0359375 -4.37203125 1.571875 -3.7265625 1.09375 C-2 0 -2 0 0 0 Z " fill="#011025" transform="translate(122,223)"/>
<path d="M0 0 C2.64 0.33 5.28 0.66 8 1 C4.17482487 3.39073445 0.40334476 3.55966552 -4 4 C-3.01 3.67 -2.02 3.34 -1 3 C-0.67 2.01 -0.34 1.02 0 0 Z " fill="#000821" transform="translate(300,220)"/>
<path d="M0 0 C3.465 1.98 3.465 1.98 7 4 C5.1875 5.0625 5.1875 5.0625 3 6 C2.01 5.67 1.02 5.34 0 5 C0 3.35 0 1.7 0 0 Z " fill="#01081A" transform="translate(665,214)"/>
<path d="M0 0 C2.97 0.33 5.94 0.66 9 1 C7.25 2.5625 7.25 2.5625 5 4 C2.8125 3.875 2.8125 3.875 1 3 C0.67 2.01 0.34 1.02 0 0 Z " fill="#2981E3" transform="translate(184,180)"/>
<path d="M0 0 C2.97 0.495 2.97 0.495 6 1 C6 1.66 6 2.32 6 3 C7.32 3 8.64 3 10 3 C10 3.99 10 4.98 10 6 C6.40992874 4.66654496 3.20429093 3.1056769 0 1 C0 0.67 0 0.34 0 0 Z " fill="#02152E" transform="translate(673,130)"/>
<path d="M0 0 C4.50884026 2.31883213 6.93906776 5.06451569 10 9 C7.625 8.75 7.625 8.75 5 8 C3.875 6.0625 3.875 6.0625 3 4 C2.01 3.34 1.02 2.68 0 2 C0 1.34 0 0.68 0 0 Z " fill="#1057AE" transform="translate(472,540)"/>
<path d="M0 0 C0.78375 0.185625 1.5675 0.37125 2.375 0.5625 C4.97089775 1.25962266 4.97089775 1.25962266 7 0 C7.33 1.32 7.66 2.64 8 4 C7.01 4.66 6.02 5.32 5 6 C3.35 4.02 1.7 2.04 0 0 Z " fill="#2F81DE" transform="translate(528,487)"/>
<path d="M0 0 C1.32 0.33 2.64 0.66 4 1 C0.535 3.97 0.535 3.97 -3 7 C-3 5.02 -3 3.04 -3 1 C-2.01 1.33 -1.02 1.66 0 2 C0 1.34 0 0.68 0 0 Z " fill="#2F79D3" transform="translate(659,363)"/>
<path d="M0 0 C0.598125 0.350625 1.19625 0.70125 1.8125 1.0625 C1.1525 2.3825 0.4925 3.7025 -0.1875 5.0625 C-1.8375 3.4125 -3.4875 1.7625 -5.1875 0.0625 C-2.1875 -0.9375 -2.1875 -0.9375 0 0 Z " fill="#2C81E2" transform="translate(620.1875,362.9375)"/>
<path d="M0 0 C-2.31 1.65 -4.62 3.3 -7 5 C-7.33 4.01 -7.66 3.02 -8 2 C-6.07422746 -1.85154509 -3.80227342 -0.95056836 0 0 Z " fill="#2C7CDD" transform="translate(193,358)"/>
<path d="M0 0 C0.99 0.33 1.98 0.66 3 1 C-0.465 3.97 -0.465 3.97 -4 7 C-4 5.02 -4 3.04 -4 1 C-2.68 1.33 -1.36 1.66 0 2 C0 1.34 0 0.68 0 0 Z " fill="#2C7DDB" transform="translate(69,261)"/>
<path d="M0 0 C-5.20333134 2.24281523 -8.34264585 3.55577239 -14 2 C-14 1.67 -14 1.34 -14 1 C-12.41913952 0.63495397 -10.83516093 0.28339494 -9.25 -0.0625 C-8.36828125 -0.25972656 -7.4865625 -0.45695313 -6.578125 -0.66015625 C-4.01320972 -0.99825872 -2.42908361 -0.81158635 0 0 Z " fill="#2E73C5" transform="translate(332,218)"/>
<path d="M0 0 C1.17539996 0.92652701 2.34010577 1.86663387 3.5 2.8125 C4.1496875 3.33457031 4.799375 3.85664063 5.46875 4.39453125 C7 6 7 6 7 9 C0.70535714 4.17857143 0.70535714 4.17857143 0 0 Z " fill="#2D77D3" transform="translate(784,211)"/>
<path d="M0 0 C5.03985731 0.44469329 7.37634988 2.71343362 11 6 C10.67 6.66 10.34 7.32 10 8 C8.33055479 6.85821872 6.6645052 5.71147095 5 4.5625 C4.071875 3.92441406 3.14375 3.28632813 2.1875 2.62890625 C1.465625 2.09136719 0.74375 1.55382812 0 1 C0 0.67 0 0.34 0 0 Z " fill="#011231" transform="translate(721,160)"/>
<path d="M0 0 C1.65 0.33 3.3 0.66 5 1 C2.11912454 3.40072955 -0.56404834 5.47291037 -4 7 C-4 6.01 -4 5.02 -4 4 C-3.01 3.67 -2.02 3.34 -1 3 C-0.67 2.01 -0.34 1.02 0 0 Z " fill="#000B23" transform="translate(84,152)"/>
<path d="M0 0 C0.66 0 1.32 0 2 0 C1.01 3.3 0.02 6.6 -1 10 C-1.33 10 -1.66 10 -2 10 C-2.25 3.375 -2.25 3.375 0 0 Z " fill="#0C58B0" transform="translate(507,656)"/>
<path d="M0 0 C0.33 0.66 0.66 1.32 1 2 C0.02616054 3.68208635 -0.97695052 5.34738161 -2 7 C-2.69579454 9.19130534 -2.69579454 9.19130534 -3 11 C-3.99 11 -4.98 11 -6 11 C-4.54955729 6.89041233 -2.48889248 3.56741255 0 0 Z " fill="#2F77CC" transform="translate(306,563)"/>
<path d="M0 0 C0.33 0.66 0.66 1.32 1 2 C-0.65 3.98 -2.3 5.96 -4 8 C-4.99 7.67 -5.98 7.34 -7 7 C-4.69 4.69 -2.38 2.38 0 0 Z " fill="#000721" transform="translate(662,364)"/>
<path d="M0 0 C4.875 2.75 4.875 2.75 6 5 C4.02 5.33 2.04 5.66 0 6 C0 4.02 0 2.04 0 0 Z " fill="#2B83E7" transform="translate(660,304)"/>
<path d="M0 0 C-2.97 2.475 -2.97 2.475 -6 5 C-6.33 4.01 -6.66 3.02 -7 2 C-5.26578631 -1.46842738 -3.40984787 -1.13661596 0 0 Z " fill="#2F81E8" transform="translate(104,235)"/>
<path d="M0 0 C0.66 0.33 1.32 0.66 2 1 C-0.25 3.5625 -0.25 3.5625 -3 6 C-4.32 5.67 -5.64 5.34 -7 5 C-4.69 3.35 -2.38 1.7 0 0 Z " fill="#020D26" transform="translate(133,214)"/>
<path d="M0 0 C0.763125 0.309375 1.52625 0.61875 2.3125 0.9375 C4.18789677 1.67893593 6.08684652 2.36228217 8 3 C8.33 4.65 8.66 6.3 9 8 C7.68388323 7.04663979 6.37221039 6.08714226 5.0625 5.125 C4.33160156 4.59132812 3.60070312 4.05765625 2.84765625 3.5078125 C1 2 1 2 0 0 Z " fill="#010C26" transform="translate(782,209)"/>
<path d="M0 0 C-0.33 1.32 -0.66 2.64 -1 4 C-3.64 4 -6.28 4 -9 4 C-6.43425105 1.43425105 -3.68548192 0 0 0 Z " fill="#2A78D5" transform="translate(202,96)"/>
<path d="M0 0 C2.64 0 5.28 0 8 0 C8 0.66 8 1.32 8 2 C8.99 2.33 9.98 2.66 11 3 C9 4 9 4 6.8359375 3.44140625 C6.02382813 3.15136719 5.21171875 2.86132812 4.375 2.5625 C3.55773437 2.27503906 2.74046875 1.98757813 1.8984375 1.69140625 C1.27195312 1.46324219 0.64546875 1.23507812 0 1 C0 0.67 0 0.34 0 0 Z " fill="#2B78CC" transform="translate(358,731)"/>
<path d="M0 0 C6.64615385 1.47692308 6.64615385 1.47692308 8.4375 4.125 C8.7159375 5.053125 8.7159375 5.053125 9 6 C5.06326356 4.68775452 2.77280706 3.08089673 0 0 Z " fill="#001031" transform="translate(460,530)"/>
<path d="M0 0 C0.66 0.33 1.32 0.66 2 1 C0.92892883 1.86949317 -0.15745944 2.72014205 -1.25 3.5625 C-1.85328125 4.03816406 -2.4565625 4.51382812 -3.078125 5.00390625 C-5 6 -5 6 -7.234375 5.65234375 C-7.81703125 5.43707031 -8.3996875 5.22179687 -9 5 C-7.54735962 4.1361871 -6.0876837 3.28419546 -4.625 2.4375 C-3.40683594 1.72400391 -3.40683594 1.72400391 -2.1640625 0.99609375 C-1.44992187 0.66738281 -0.73578125 0.33867187 0 0 Z " fill="#3279D3" transform="translate(276,393)"/>
<path d="M0 0 C0.66 0.33 1.32 0.66 2 1 C-1.465 3.97 -1.465 3.97 -5 7 C-5 5.68 -5 4.36 -5 3 C-4.34 3 -3.68 3 -3 3 C-3 2.34 -3 1.68 -3 1 C-2.01 0.67 -1.02 0.34 0 0 Z " fill="#307AD0" transform="translate(672,352)"/>
<path d="M0 0 C0 3 0 3 -2 6 C-5.125 7.1875 -5.125 7.1875 -8 8 C-5.33333333 5.33333333 -2.66666667 2.66666667 0 0 Z " fill="#2E77CF" transform="translate(124,316)"/>
<path d="M0 0 C0.33 0.66 0.66 1.32 1 2 C0.67 2.66 0.34 3.32 0 4 C-0.99 4 -1.98 4 -3 4 C-3.33 4.99 -3.66 5.98 -4 7 C-5.32 6.67 -6.64 6.34 -8 6 C-5.36 4.02 -2.72 2.04 0 0 Z " fill="#2D79D1" transform="translate(160,287)"/>
<path d="M0 0 C0 0.66 0 1.32 0 2 C-3.85756507 4.15305957 -6.55129785 5.39253254 -11 5 C-7.72709962 2.33319229 -4.35126896 0 0 0 Z " fill="#2F79D3" transform="translate(239,244)"/>
<path d="M0 0 C2.0625 1.75 2.0625 1.75 4 4 C3.75 6.25 3.75 6.25 3 8 C1.35 6.02 -0.3 4.04 -2 2 C-1.34 1.34 -0.68 0.68 0 0 Z " fill="#2F79D2" transform="translate(2,224)"/>
<path d="M0 0 C1.32 0 2.64 0 4 0 C4 0.66 4 1.32 4 2 C5.65 2 7.3 2 9 2 C9 2.99 9 3.98 9 5 C5.22454612 3.90931332 2.52956528 3.0916909 0 0 Z " fill="#2D7ADA" transform="translate(631,193)"/>
<path d="M0 0 C3.26460973 1.80412643 4.88929795 2.83394693 7 6 C4.625 5.8125 4.625 5.8125 2 5 C0.6875 2.4375 0.6875 2.4375 0 0 Z " fill="#3282E7" transform="translate(760,191)"/>
<path d="M0 0 C-1 3 -1 3 -4 5 C-6.6875 5.125 -6.6875 5.125 -9 5 C-2.87096774 0 -2.87096774 0 0 0 Z " fill="#020F2B" transform="translate(184,186)"/>
<path d="M0 0 C1.43655854 -0.08131463 2.8744483 -0.13933559 4.3125 -0.1875 C5.51326172 -0.23970703 5.51326172 -0.23970703 6.73828125 -0.29296875 C9.47851584 0.06198392 10.29171079 0.89366282 12 3 C3.96428571 2.19642857 3.96428571 2.19642857 0 0 Z " fill="#2D76CB" transform="translate(522,151)"/>
<path d="M0 0 C2.475 0.495 2.475 0.495 5 1 C5.12375 1.639375 5.2475 2.27875 5.375 2.9375 C5.684375 3.9584375 5.684375 3.9584375 6 5 C6.66 5.33 7.32 5.66 8 6 C5 6 5 6 3.61328125 4.6875 C2.40885417 3.125 1.20442708 1.5625 0 0 Z " fill="#3177CC" transform="translate(238,464)"/>
<path d="M0 0 C0.99 0.66 1.98 1.32 3 2 C0.03 4.475 0.03 4.475 -3 7 C-3.33 6.01 -3.66 5.02 -4 4 C-2.68 2.68 -1.36 1.36 0 0 Z " fill="#2D79D6" transform="translate(677,345)"/>
<path d="M0 0 C0 3 0 3 -2.5 5.6875 C-3.325 6.450625 -4.15 7.21375 -5 8 C-5.66 7.67 -6.32 7.34 -7 7 C-4.69 4.69 -2.38 2.38 0 0 Z " fill="#021933" transform="translate(60,272)"/>
<path d="M0 0 C0 3 0 3 -2 6 C-2.66 6 -3.32 6 -4 6 C-4 6.66 -4 7.32 -4 8 C-4.99 7.67 -5.98 7.34 -7 7 C-4.69 4.69 -2.38 2.38 0 0 Z " fill="#000823" transform="translate(774,252)"/>
<path d="M0 0 C0.99 0.66 1.98 1.32 3 2 C0.69 3.65 -1.62 5.3 -4 7 C-4 6.01 -4 5.02 -4 4 C-3.34 4 -2.68 4 -2 4 C-1.34 2.68 -0.68 1.36 0 0 Z " fill="#010B24" transform="translate(41,185)"/>
<path d="M0 0 C2.97 1.65 5.94 3.3 9 5 C8.34 5.66 7.68 6.32 7 7 C6.34 6.34 5.68 5.68 5 5 C2.93125966 4.3574765 2.93125966 4.3574765 1 4 C0.67 2.68 0.34 1.36 0 0 Z " fill="#317CD7" transform="translate(714,156)"/>
<path d="M0 0 C-0.33 0.99 -0.66 1.98 -1 3 C-4.3 3 -7.6 3 -11 3 C-11 2.67 -11 2.34 -11 2 C-7.12315913 0.80712589 -4.08378077 0 0 0 Z " fill="#031531" transform="translate(280,151)"/>
<path d="M0 0 C0.99 0.66 1.98 1.32 3 2 C1.68 3.32 0.36 4.64 -1 6 C-1.66 5.34 -2.32 4.68 -3 4 C-2.67 3.01 -2.34 2.02 -2 1 C-1.34 0.67 -0.68 0.34 0 0 Z " fill="#0B5AB9" transform="translate(476,705)"/>
<path d="M0 0 C0.66 0.33 1.32 0.66 2 1 C-0.25 3.0625 -0.25 3.0625 -3 5 C-5.3125 4.75 -5.3125 4.75 -7 4 C-1.7265625 0.77734375 -1.7265625 0.77734375 0 0 Z " fill="#01102B" transform="translate(310,460)"/>
<path d="M0 0 C-2 2 -2 2 -5.625 2.125 C-6.73875 2.08375 -7.8525 2.0425 -9 2 C-5.945634 -1.054366 -3.9532319 -1.22686507 0 0 Z " fill="#02112F" transform="translate(353,445)"/>
<path d="M0 0 C0.99 0 1.98 0 3 0 C1.63016497 3.16115776 1.0109362 3.9927092 -2 6 C-1.125 1.125 -1.125 1.125 0 0 Z " fill="#2879D5" transform="translate(581,441)"/>
<path d="M0 0 C4.455 2.97 4.455 2.97 9 6 C8.01 6.495 8.01 6.495 7 7 C1.125 3.375 1.125 3.375 0 0 Z " fill="#327ED5" transform="translate(560,417)"/>
<path d="M0 0 C0.66 0.33 1.32 0.66 2 1 C2 1.99 2 2.98 2 4 C2.99 4.33 3.98 4.66 5 5 C4.34 5.66 3.68 6.32 3 7 C1.35 5.02 -0.3 3.04 -2 1 C-1.34 0.67 -0.68 0.34 0 0 Z " fill="#2E79D2" transform="translate(146,369)"/>
<path d="M0 0 C0 0.66 0 1.32 0 2 C-1.98 2.99 -1.98 2.99 -4 4 C-4 3.34 -4 2.68 -4 2 C-4.66 2 -5.32 2 -6 2 C-6 1.34 -6 0.68 -6 0 C-3.50907189 -1.24546405 -2.58919267 -0.7767578 0 0 Z " fill="#2B83E9" transform="translate(183,364)"/>
<path d="M0 0 C1.65 1.65 3.3 3.3 5 5 C3.68 5 2.36 5 1 5 C-0.75 3 -0.75 3 -2 1 C-1.34 0.67 -0.68 0.34 0 0 Z " fill="#2E77CC" transform="translate(50,273)"/>
<path d="M0 0 C0.33 0.66 0.66 1.32 1 2 C1.66 2.33 2.32 2.66 3 3 C1.35 4.32 -0.3 5.64 -2 7 C-2.33 6.01 -2.66 5.02 -3 4 C-1.5625 1.8125 -1.5625 1.8125 0 0 Z " fill="#2778D5" transform="translate(756,265)"/>
<path d="M0 0 C1.98 0 3.96 0 6 0 C6.66 1.65 7.32 3.3 8 5 C5.36 3.68 2.72 2.36 0 1 C0 0.67 0 0.34 0 0 Z " fill="#010B25" transform="translate(590,257)"/>
<path d="M0 0 C2.475 0.495 2.475 0.495 5 1 C3.35 2.65 1.7 4.3 0 6 C0 4.02 0 2.04 0 0 Z " fill="#00102C" transform="translate(0,220)"/>
<path d="M0 0 C3.40312738 1.05875074 6.01353231 2.00902154 9 4 C9 4.66 9 5.32 9 6 C5.06326356 4.68775452 2.77280706 3.08089673 0 0 Z " fill="#2D7BD4" transform="translate(662,211)"/>
<path d="M0 0 C2.31 0.33 4.62 0.66 7 1 C4.63707344 3.52588702 3.33537489 4.88820837 0 6 C0 4.02 0 2.04 0 0 Z " fill="#2D81E0" transform="translate(129,211)"/>
</svg>
